<svg width="64" height="102" viewBox="0 0 64 102" fill="none" xmlns="http://www.w3.org/2000/svg">
<path d="M155.575 29.9462C162.675 29.9462 168.475 24.1462 168.475 17.0462C168.475 9.94625 162.675 4.14624 155.575 4.14624H4.57495C9.57495 12.7462 9.57495 21.3462 4.57495 29.9462H155.575Z" fill="#EDEDED"/>
<path d="M155.575 29.9463C162.875 29.9463 168.775 23.8463 168.475 16.4463C168.175 9.54634 162.175 4.24634 155.275 4.24634H2.57495C1.47495 4.24634 0.574951 3.34634 0.574951 2.24634C0.574951 1.14634 1.47495 0.246338 2.57495 0.246338H155.575C164.875 0.246338 172.375 7.74634 172.375 17.0463C172.375 26.3463 164.875 33.8463 155.575 33.8463H2.57495C1.47495 33.8463 0.574951 32.9463 0.574951 31.8463C0.574951 30.7463 1.47495 29.8463 2.57495 29.8463H155.575V29.9463Z" fill="#FFC278"/>
<path d="M163.075 6.64624L150.875 6.74625L127.975 6.94624L82.0751 7.04625L36.175 6.94624L13.2751 6.84624L5.87505 6.74625C5.77505 6.64625 5.77505 6.54624 5.67505 6.44624L13.175 6.34624L36.0751 6.24625L81.9751 6.14624L127.875 6.24625L150.775 6.34624L162.575 6.44624C162.875 6.44624 162.975 6.54624 163.075 6.64624ZM166.075 9.64624C166.075 9.54624 165.975 9.54624 165.975 9.44624L150.975 9.24625L128.075 9.14624L82.1751 9.04625L36.2751 9.14624L13.375 9.24625L7.07506 9.34624C7.07506 9.44624 7.17505 9.54625 7.17505 9.74625L13.375 9.84624L36.2751 9.94624L82.1751 10.0462L127.975 9.94624L150.875 9.84624L166.075 9.64624ZM167.675 12.6462C167.675 12.6462 167.675 12.5462 167.575 12.5462L150.875 12.3462L127.975 12.2462L82.0751 12.1462L36.175 12.2462L13.2751 12.3462L7.87505 12.4462C7.87505 12.5462 7.87505 12.7462 7.97505 12.8462L13.375 12.9462L36.2751 13.0462L82.1751 13.1462L127.975 12.9462L150.875 12.8462L167.675 12.6462ZM5.67505 27.8462L13.175 27.9462L36.0751 28.0462L81.9751 28.1462L127.875 28.0462L150.775 27.9462L162.575 27.8462C162.675 27.7462 162.775 27.6462 162.875 27.6462L150.675 27.5462L127.775 27.4462L81.875 27.3462L35.9751 27.4462L13.0751 27.5462L5.67505 27.6462C5.77505 27.5462 5.77505 27.7462 5.67505 27.8462ZM165.975 24.7462C165.975 24.6462 166.075 24.6462 166.075 24.5462L150.975 24.3462L128.075 24.2462L82.1751 24.1462L36.2751 24.2462L13.375 24.3462L7.17505 24.4462C7.17505 24.5462 7.07506 24.6462 7.07506 24.8462L13.375 24.9462L36.2751 25.0462L82.1751 25.1462L128.075 25.0462L150.975 24.9462L165.975 24.7462ZM167.575 21.6462C167.575 21.6462 167.575 21.5462 167.675 21.5462L150.975 21.3462L128.075 21.2462L82.1751 21.1462L36.2751 21.2462L13.375 21.3462L7.97505 21.4462C7.97505 21.5462 7.97505 21.7462 7.87505 21.8462L13.2751 21.9462L36.175 22.0462L82.0751 22.1462L127.975 22.0462L150.875 21.9462L167.575 21.6462ZM168.375 18.6462V18.5462L150.875 18.3462L127.975 18.2462L82.0751 18.1462L36.175 18.2462L13.2751 18.3462L8.27505 18.4462C8.27505 18.5462 8.27505 18.7462 8.27505 18.8462L13.2751 18.9462L36.175 19.0462L82.0751 19.1462L127.975 18.9462L150.875 18.8462L168.375 18.6462ZM168.375 15.6462V15.5462L150.975 15.3462L128.075 15.2462L82.1751 15.1462L36.2751 15.2462L13.375 15.3462L8.37505 15.4462C8.37505 15.5462 8.37505 15.7462 8.37505 15.8462L13.375 15.9462L36.2751 16.0462L82.1751 16.1462L127.975 15.9462L150.875 15.8462L168.375 15.6462Z" fill="#E1E3EF"/>
<path d="M20.875 28.8463L27.475 25.0463L34.075 28.8463V12.2463H20.875V28.8463Z" fill="#FFC278"/>
<path d="M17.4749 63.6462C10.3749 63.6462 4.57495 57.8462 4.57495 50.7462C4.57495 43.6462 10.3749 37.8462 17.4749 37.8462H168.475C163.475 46.4462 163.475 55.0462 168.475 63.6462H17.4749Z" fill="#EDEDED"/>
<path d="M17.4749 63.6463C10.1749 63.6463 4.27495 57.5463 4.57495 50.1463C4.87495 43.2463 10.8749 37.9463 17.7749 37.9463H170.375C171.475 37.9463 172.375 37.0463 172.375 35.9463C172.375 34.8463 171.475 33.9463 170.375 33.9463H17.3749C8.07494 33.9463 0.574951 41.4463 0.574951 50.7463C0.574951 60.0463 8.07494 67.5463 17.3749 67.5463H170.375C171.475 67.5463 172.375 66.6463 172.375 65.5463C172.375 64.4463 171.475 63.5463 170.375 63.5463H17.4749V63.6463Z" fill="#FF7648"/>
<path d="M10.2749 40.0463L22.075 39.9463L44.9749 39.8463L90.8749 39.7463L136.775 39.8463L159.675 39.9463L167.175 40.0463C167.075 40.1463 167.075 40.2463 166.975 40.3463L159.575 40.4463L136.675 40.5463L90.7749 40.6463L44.8749 40.5463L21.9749 40.4463L9.77495 40.3463C10.0749 40.2463 10.1749 40.1463 10.2749 40.0463ZM22.075 43.4463L44.9749 43.5463L90.8749 43.6463L136.775 43.5463L159.675 43.4463L165.875 43.3463C165.875 43.2463 165.975 43.1463 165.975 42.9463L159.675 42.8463L136.775 42.7463L90.8749 42.6463L44.9749 42.7463L22.075 42.8463L7.07495 43.0463C7.07495 43.1463 6.97495 43.1463 6.97495 43.2463L22.075 43.4463ZM22.075 46.4463L44.9749 46.5463L90.8749 46.6463L136.775 46.5463L159.675 46.4463L165.075 46.3463C165.075 46.2463 165.075 46.0463 165.175 45.9463L159.775 45.8463L136.875 45.7463L90.9749 45.6463L45.075 45.7463L22.1749 45.8463L5.47495 46.0463C5.47495 46.0463 5.47494 46.1463 5.37494 46.1463L22.075 46.4463ZM167.175 61.1463L159.775 61.0463L136.875 60.9463L90.9749 60.8463L45.075 60.9463L22.1749 61.0463L9.97495 61.1463C10.0749 61.2463 10.1749 61.3463 10.2749 61.3463L22.075 61.4463L44.9749 61.5463L90.8749 61.6463L136.775 61.5463L159.675 61.4463L167.175 61.3463C167.275 61.4463 167.275 61.2463 167.175 61.1463ZM22.075 58.5463L44.9749 58.6463L90.8749 58.7463L136.775 58.6463L159.675 58.5463L165.975 58.4463C165.975 58.3463 165.875 58.2463 165.875 58.0463L159.675 57.9463L136.775 57.8463L90.8749 57.7463L44.9749 57.8463L22.075 57.9463L6.97495 58.1463C6.97495 58.2463 7.07495 58.2463 7.07495 58.3463L22.075 58.5463ZM22.075 55.5463L44.9749 55.6463L90.8749 55.7463L136.775 55.6463L159.675 55.5463L165.075 55.4463C165.075 55.3463 165.075 55.1463 164.975 55.0463L159.575 54.9463L136.675 54.8463L90.7749 54.7463L44.8749 54.8463L21.9749 54.9463L5.27495 55.1463C5.27495 55.1463 5.27494 55.2463 5.37494 55.2463L22.075 55.5463ZM22.075 52.5463L44.9749 52.6463L90.8749 52.7463L136.775 52.6463L159.675 52.5463L164.675 52.4463C164.675 52.3463 164.675 52.1463 164.675 52.0463L159.675 51.9463L136.775 51.8463L90.8749 51.7463L44.9749 51.8463L22.075 51.9463L4.57495 52.1463V52.2463L22.075 52.5463ZM22.075 49.5463L44.9749 49.6463L90.8749 49.7463L136.775 49.6463L159.675 49.5463L164.675 49.4463C164.675 49.3463 164.675 49.1463 164.675 49.0463L159.675 48.9463L136.775 48.8463L90.8749 48.7463L44.9749 48.8463L22.075 48.9463L4.67494 49.1463V49.2463L22.075 49.5463Z" fill="#E1E3EF"/>
<path d="M155.575 97.3461C162.675 97.3461 168.475 91.5461 168.475 84.4461C168.475 77.3461 162.675 71.5461 155.575 71.5461H4.57495C9.57495 80.1461 9.57495 88.7461 4.57495 97.3461H155.575Z" fill="#EDEDED"/>
<path d="M155.575 97.3462C162.875 97.3462 168.775 91.2462 168.475 83.8462C168.175 76.9462 162.175 71.6462 155.275 71.6462H2.67505C1.57505 71.6462 0.675049 70.7462 0.675049 69.6462C0.675049 68.5462 1.57505 67.6462 2.67505 67.6462H155.675C164.975 67.6462 172.475 75.1462 172.475 84.4462C172.475 93.7462 164.975 101.246 155.675 101.246H2.67505C1.57505 101.246 0.675049 100.346 0.675049 99.2462C0.675049 98.1462 1.57505 97.2462 2.67505 97.2462H155.575V97.3462Z" fill="#8F98FF"/>
<path d="M163.075 74.0463L150.875 74.1463L127.975 74.2463L82.0751 74.3463L36.175 74.2463L13.2751 74.1463L5.87505 74.0463C5.77505 73.9463 5.77505 73.8463 5.67505 73.7463L13.175 73.6463L36.0751 73.5463L81.9751 73.4463L127.875 73.5463L150.775 73.6463L162.575 73.7463C162.875 73.8463 162.975 73.9463 163.075 74.0463ZM166.075 77.0463C166.075 76.9463 165.975 76.9463 165.975 76.8463L150.975 76.6463L128.075 76.5463L82.1751 76.4463L36.2751 76.5463L13.375 76.6463L7.07506 76.7463C7.07506 76.8463 7.17505 76.9463 7.17505 77.1463L13.375 77.2463L36.2751 77.3463L82.1751 77.4463L128.075 77.3463L150.975 77.2463L166.075 77.0463ZM167.675 80.0463C167.675 80.0463 167.675 79.9463 167.575 79.9463L150.875 79.7463L127.975 79.6463L82.0751 79.5463L36.175 79.6463L13.2751 79.7463L7.87505 79.8463C7.87505 79.9463 7.87505 80.1463 7.97505 80.2463L13.375 80.3463L36.2751 80.4463L82.1751 80.5463L128.075 80.4463L150.975 80.3463L167.675 80.0463ZM165.975 92.1463C165.975 92.0463 166.075 92.0463 166.075 91.9463L150.975 91.7463L128.075 91.6463L82.1751 91.5463L36.2751 91.6463L13.375 91.7463L7.17505 91.8463C7.17505 91.9463 7.07506 92.0463 7.07506 92.2463L13.375 92.3463L36.2751 92.4463L82.1751 92.5463L128.075 92.4463L150.975 92.3463L165.975 92.1463ZM167.575 89.0463C167.575 89.0463 167.575 88.9463 167.675 88.9463L150.975 88.7463L128.075 88.6463L82.1751 88.5463L36.2751 88.6463L13.375 88.7463L7.97505 88.8463C7.97505 88.9463 7.97505 89.1463 7.87505 89.2463L13.2751 89.3463L36.175 89.4463L82.0751 89.5463L127.975 89.4463L150.875 89.3463L167.575 89.0463ZM168.375 86.0463V85.9463L150.875 85.7463L127.975 85.6463L82.0751 85.5463L36.175 85.6463L13.2751 85.7463L8.27505 85.8463C8.27505 85.9463 8.27505 86.1463 8.27505 86.2463L13.2751 86.3463L36.175 86.4463L82.0751 86.5463L127.975 86.4463L150.875 86.3463L168.375 86.0463ZM168.375 83.0463V82.9463L150.975 82.7463L128.075 82.6463L82.1751 82.5463L36.2751 82.6463L13.375 82.7463L8.37505 82.8463C8.37505 82.9463 8.37505 83.1463 8.37505 83.2463L13.375 83.3463L36.2751 83.4463L82.1751 83.5463L128.075 83.4463L150.975 83.3463L168.375 83.0463Z" fill="#E1E3EF"/>
<path d="M57.175 96.2461L63.775 92.4461L70.275 96.2461V79.5461H57.175V96.2461Z" fill="#8F98FF"/>
</svg>
