<svg t="1642346934254" class="icon" viewBox="0 0 1024 1024" version="1.1" xmlns="http://www.w3.org/2000/svg" p-id="6661" width="32" height="32"><path d="M618.112 198.72m-15.084945-15.084945a21.333333 21.333333 0 1 0 30.16989 30.16989 21.333333 21.333333 0 1 0-30.16989-30.16989Z" fill="#1A1F23" p-id="6662"></path><path d="M286.421333 280.981333m-15.084944-15.084944a21.333333 21.333333 0 1 0 30.169889 30.169889 21.333333 21.333333 0 1 0-30.169889-30.169889Z" fill="#1A1F23" p-id="6663"></path><path d="M835.328 415.936m-15.084945-15.084945a21.333333 21.333333 0 1 0 30.16989 30.16989 21.333333 21.333333 0 1 0-30.16989-30.16989Z" fill="#1A1F23" p-id="6664"></path><path d="M750.250667 744.810667m-15.084945-15.084945a21.333333 21.333333 0 1 0 30.169889 30.169889 21.333333 21.333333 0 1 0-30.169889-30.169889Z" fill="#1A1F23" p-id="6665"></path><path d="M809.6 227.2l35.818667 21.482667a10.666667 10.666667 0 0 1 0 18.304l-35.797334 21.482666a10.666667 10.666667 0 0 0-3.669333 3.648l-21.482667 35.818667a10.666667 10.666667 0 0 1-18.304 0l-21.461333-35.818667a10.666667 10.666667 0 0 0-3.669333-3.648l-35.797334-21.482666a10.666667 10.666667 0 0 1 0-18.304l35.797334-21.482667a10.666667 10.666667 0 0 0 3.669333-3.648l21.461333-35.797333a10.666667 10.666667 0 0 1 18.304 0l21.482667 35.797333a10.666667 10.666667 0 0 0 3.648 3.648zM442.346667 126.4L465.28 161.28a10.666667 10.666667 0 0 1-7.936 16.469333l-41.6 3.797334a10.666667 10.666667 0 0 0-4.864 1.706666l-34.922667 22.912a10.666667 10.666667 0 0 1-16.469333-7.957333l-3.797333-41.578667a10.666667 10.666667 0 0 0-1.706667-4.885333L331.093333 116.864a10.666667 10.666667 0 0 1 7.936-16.469333l41.6-3.797334a10.666667 10.666667 0 0 0 4.864-1.706666l34.901334-22.912a10.666667 10.666667 0 0 1 16.490666 7.957333l3.776 41.578667c0.170667 1.749333 0.746667 3.413333 1.706667 4.885333zM926.762667 660.650667l-7.808 41.024a10.666667 10.666667 0 0 1-17.173334 6.293333l-32.512-26.197333a10.666667 10.666667 0 0 0-4.693333-2.154667l-41.024-7.829333a10.666667 10.666667 0 0 1-6.293333-17.173334l26.197333-32.512a10.666667 10.666667 0 0 0 2.176-4.693333l7.808-41.002667a10.666667 10.666667 0 0 1 17.173333-6.314666l32.512 26.197333a10.666667 10.666667 0 0 0 4.693334 2.176l41.002666 7.808a10.666667 10.666667 0 0 1 6.314667 17.173333l-26.197333 32.512a10.666667 10.666667 0 0 0-2.176 4.693334zM531.904 741.653333l-212.181333-212.16-141.44 353.6 353.6-141.44z" fill="#FB1717" p-id="6666"></path><path d="M429.354667 774.826667l10.154666-108.224a10.666667 10.666667 0 0 1 15.552-8.469334l63.957334 33.28a10.666667 10.666667 0 0 1 5.696 10.517334l-6.826667 68.010666a10.666667 10.666667 0 0 1-9.514667 9.557334l-67.306666 6.912a10.666667 10.666667 0 0 1-11.712-11.605334z" fill="#FB9E17" p-id="6667"></path><path d="M255.914667 876.437333l32-384-42.496-3.541333-32 384 42.496 3.541333z m106.837333-291.626666l-21.333333 245.333333 42.496 3.712 21.333333-245.333333-42.496-3.712zM691.370667 341.802667a21.333333 21.333333 0 0 1 0 30.165333l-196.117334 196.096a21.333333 21.333333 0 0 1-30.165333-30.165333l196.096-196.096a21.333333 21.333333 0 0 1 30.186667 0zM434.346667 224a21.333333 21.333333 0 0 1 27.84 11.605333c28.096 68.202667 28.586667 125.824 15.936 172.117334A226.474667 226.474667 0 0 1 419.84 507.733333a21.333333 21.333333 0 0 1-30.186667-30.165333 183.765333 183.765333 0 0 0 47.317334-81.045333c10.005333-36.672 10.474667-84.650667-14.229334-144.64a21.333333 21.333333 0 0 1 11.605334-27.861334zM799.850667 592.213333a21.333333 21.333333 0 0 0-13.44-27.029333c-128.597333-43.221333-220.224 19.84-262.293334 61.930667a21.333333 21.333333 0 0 0 30.165334 30.165333c36.16-36.16 111.530667-87.616 218.56-51.669333a21.333333 21.333333 0 0 0 27.008-13.418667z" fill="#1A1F23" p-id="6668"></path><path d="M592.512 246.144a21.333333 21.333333 0 0 1 13.504 26.965333l-30.186667 90.517334a21.333333 21.333333 0 0 1-40.469333-13.482667l30.165333-90.517333a21.333333 21.333333 0 0 1 26.986667-13.482667z m194.517333 194.496a21.333333 21.333333 0 0 1-13.504 26.986667l-90.496 30.165333a21.333333 21.333333 0 0 1-13.504-40.469333l90.517334-30.165334a21.333333 21.333333 0 0 1 26.986666 13.482667zM315.029333 329.109333a21.333333 21.333333 0 0 1 26.986667 13.482667l22.613333 67.882667a21.333333 21.333333 0 1 1-40.448 13.504l-22.634666-67.882667a21.333333 21.333333 0 0 1 13.482666-26.986667z m389.034667 389.013334a21.333333 21.333333 0 0 1-26.986667 13.504l-67.882666-22.634667a21.333333 21.333333 0 1 1 13.482666-40.469333l67.882667 22.613333a21.333333 21.333333 0 0 1 13.504 26.986667z" fill="#FB9E17" p-id="6669"></path><path d="M618.112 198.72m-15.084945-15.084945a21.333333 21.333333 0 1 0 30.16989 30.16989 21.333333 21.333333 0 1 0-30.16989-30.16989Z" fill="#1A1F23" p-id="6670"></path><path d="M286.421333 280.981333m-15.084944-15.084944a21.333333 21.333333 0 1 0 30.169889 30.169889 21.333333 21.333333 0 1 0-30.169889-30.169889Z" fill="#1A1F23" p-id="6671"></path><path d="M835.328 415.936m-15.084945-15.084945a21.333333 21.333333 0 1 0 30.16989 30.16989 21.333333 21.333333 0 1 0-30.16989-30.16989Z" fill="#1A1F23" p-id="6672"></path><path d="M750.250667 744.810667m-15.084945-15.084945a21.333333 21.333333 0 1 0 30.169889 30.169889 21.333333 21.333333 0 1 0-30.169889-30.169889Z" fill="#1A1F23" p-id="6673"></path><path d="M809.6 227.2l35.818667 21.482667a10.666667 10.666667 0 0 1 0 18.304l-35.797334 21.482666a10.666667 10.666667 0 0 0-3.669333 3.648l-21.482667 35.818667a10.666667 10.666667 0 0 1-18.304 0l-21.461333-35.818667a10.666667 10.666667 0 0 0-3.669333-3.648l-35.797334-21.482666a10.666667 10.666667 0 0 1 0-18.304l35.797334-21.482667a10.666667 10.666667 0 0 0 3.669333-3.648l21.461333-35.797333a10.666667 10.666667 0 0 1 18.304 0l21.482667 35.797333a10.666667 10.666667 0 0 0 3.648 3.648zM442.346667 126.4L465.28 161.28a10.666667 10.666667 0 0 1-7.936 16.469333l-41.6 3.797334a10.666667 10.666667 0 0 0-4.864 1.706666l-34.922667 22.912a10.666667 10.666667 0 0 1-16.469333-7.957333l-3.797333-41.578667a10.666667 10.666667 0 0 0-1.706667-4.885333L331.093333 116.864a10.666667 10.666667 0 0 1 7.936-16.469333l41.6-3.797334a10.666667 10.666667 0 0 0 4.864-1.706666l34.901334-22.912a10.666667 10.666667 0 0 1 16.490666 7.957333l3.776 41.578667c0.170667 1.749333 0.746667 3.413333 1.706667 4.885333zM926.762667 660.650667l-7.808 41.024a10.666667 10.666667 0 0 1-17.173334 6.293333l-32.512-26.197333a10.666667 10.666667 0 0 0-4.693333-2.154667l-41.024-7.829333a10.666667 10.666667 0 0 1-6.293333-17.173334l26.197333-32.512a10.666667 10.666667 0 0 0 2.176-4.693333l7.808-41.002667a10.666667 10.666667 0 0 1 17.173333-6.314666l32.512 26.197333a10.666667 10.666667 0 0 0 4.693334 2.176l41.002666 7.808a10.666667 10.666667 0 0 1 6.314667 17.173333l-26.197333 32.512a10.666667 10.666667 0 0 0-2.176 4.693334zM531.904 741.653333l-212.181333-212.16-141.44 353.6 353.6-141.44z" fill="#FB1717" p-id="6674"></path><path d="M429.354667 774.826667l10.154666-108.224a10.666667 10.666667 0 0 1 15.552-8.469334l63.957334 33.28a10.666667 10.666667 0 0 1 5.696 10.517334l-6.826667 68.010666a10.666667 10.666667 0 0 1-9.514667 9.557334l-67.306666 6.912a10.666667 10.666667 0 0 1-11.712-11.605334z" fill="#FB9E17" p-id="6675"></path><path d="M268.778667 448.426667a21.333333 21.333333 0 0 1 19.370666 5.824l281.6 281.6a21.333333 21.333333 0 0 1-7.168 34.901333l-469.333333 187.733333a21.333333 21.333333 0 0 1-27.733333-27.733333l187.733333-469.333333a21.333333 21.333333 0 0 1 15.530667-12.992z m12.074666 58.88l-157.226666 393.066666 393.066666-157.226666-235.84-235.861334z" fill="#1A1F23" p-id="6676"></path><path d="M287.914667 492.437333l-32 384-42.517334-3.541333 32-384 42.517334 3.541333z m53.504 337.706667l21.333333-245.333333 42.496 3.712-21.333333 245.333333-42.496-3.712z" fill="#1A1F23" p-id="6677"></path></svg>