<svg t="1642949192250" class="icon" viewBox="0 0 1024 1024" version="1.1" xmlns="http://www.w3.org/2000/svg" p-id="4303" width="32" height="32"><path d="M296.468 19.292C362.496 6.554 434.381 0 512 0c77.62 0 149.463 6.554 215.532 19.292 66.109 12.82 118.374 30.352 156.753 52.429 38.38 22.077 57.672 45.875 57.672 71.72v71.722c0 25.805-19.17 49.643-57.672 71.72-38.502 22.078-90.644 39.486-156.753 52.43-66.069 12.656-137.913 19.046-215.532 19.046-77.62 0-149.463-6.554-215.532-19.292-66.109-12.82-118.374-30.351-156.753-52.429-38.503-22.077-57.672-45.875-57.672-71.72v-71.722c0-25.805 19.17-49.643 57.672-71.72 38.502-21.832 90.644-39.24 156.753-52.184zM264.11 405.75c76.841 16.056 159.498 24.084 247.89 24.084s171.049-8.028 247.89-24.084c76.882-16.057 137.544-39.731 181.944-71.107v95.191c0 25.805-19.169 49.644-57.671 71.68-38.503 22.119-90.686 39.527-156.754 52.429-65.946 12.82-137.79 19.21-215.409 19.21-77.62 0-149.463-6.553-215.532-19.333-66.109-12.78-118.374-30.31-156.753-52.429-38.503-22.036-57.672-45.875-57.672-71.68v-95.19c44.523 31.62 105.185 55.295 182.067 71.27z m0 215.04c76.841 16.056 159.498 24.084 247.89 24.084s171.049-8.028 247.89-24.084c76.882-16.057 137.544-39.731 181.944-71.107v95.191c0 25.805-19.169 49.644-57.671 71.68-38.503 22.119-90.686 39.527-156.754 52.429-66.069 12.943-137.79 19.333-215.409 19.333-77.62 0-149.463-6.553-215.532-19.333-66.109-12.78-118.251-30.31-156.753-52.429-38.503-22.036-57.672-45.875-57.672-71.68v-95.19c44.523 31.375 105.185 55.05 182.067 71.106z m0 214.917C340.951 851.763 423.608 859.79 512 859.79s171.049-8.028 247.89-24.084c76.882-16.056 137.544-39.731 181.944-71.107v95.191c0 25.805-19.169 49.644-57.671 71.68-38.503 22.119-90.686 39.527-156.754 52.43-66.069 12.943-137.79 19.21-215.409 19.21-77.62 0-149.463-6.554-215.532-19.334-66.109-12.78-118.374-30.31-156.753-52.429-38.503-22.036-57.672-45.875-57.672-71.68v-95.19c44.523 31.498 105.185 55.173 182.067 71.27z" fill="#F5A623" p-id="4304"></path></svg>