<svg width="145" height="146" viewBox="0 0 145 146" fill="none" xmlns="http://www.w3.org/2000/svg">
<path d="M72.4576 145.587C112.443 145.587 144.858 113.172 144.858 73.1869C144.858 33.2015 112.443 0.786865 72.4576 0.786865C32.4722 0.786865 0.0576172 33.2015 0.0576172 73.1869C0.0576172 113.172 32.4722 145.587 72.4576 145.587Z" fill="#B0DDC9"/>
<path d="M138.358 103.287C135.858 108.787 132.758 113.787 129.158 118.387C120.558 121.987 110.958 123.187 101.758 121.587C100.558 121.387 99.3576 121.087 98.4576 120.287C95.7576 117.887 98.0576 113.587 98.0576 109.987C98.0576 106.987 96.2576 104.287 94.5576 101.787C90.7576 96.1868 86.9576 89.2868 89.2576 82.7868C91.5576 76.2868 99.2576 72.7868 101.258 66.1868C103.058 59.8868 98.9576 53.3867 98.8576 46.7868C98.7576 41.6868 101.258 36.7868 104.758 33.1868C108.358 29.5868 112.958 27.1868 117.758 25.4868C120.258 24.5868 123.058 23.9868 125.758 23.9868C144.858 44.8868 150.858 75.9868 138.358 103.287ZM50.4576 140.787C54.1576 138.987 57.2576 135.587 57.9576 131.587C58.6576 127.187 56.4576 122.887 53.7576 119.387C50.9576 115.887 47.6576 112.887 45.3576 109.087C44.3576 107.487 43.6576 105.687 43.6576 103.787C43.7576 98.5868 49.3576 94.9868 49.9576 89.8868C50.5576 85.3868 46.9576 81.2868 42.9576 79.2868C38.8576 77.2868 34.2576 76.7868 29.8576 75.5868C25.4576 74.3868 21.0576 71.9867 19.2576 67.7868C17.0576 62.4868 19.8576 56.1868 16.8576 51.1868C14.9576 47.9868 9.95759 45.8868 5.65759 45.1868C-9.44241 81.0868 6.65759 122.787 42.3576 139.087C44.4576 139.987 46.4576 140.887 48.5576 141.587C49.2576 141.387 49.8576 141.087 50.4576 140.787ZM30.3576 14.2868C30.5576 15.0868 30.8576 15.8868 31.2576 16.5868C34.7576 23.9868 42.2576 29.5868 43.3576 37.6868C43.6576 39.8868 43.5576 42.3868 44.9576 44.0868C45.6576 44.9868 46.7576 45.4868 47.8576 45.9868C56.9576 49.7868 68.3576 47.0868 74.6576 39.4868C80.7576 32.0868 81.8576 21.7868 86.6576 13.4868C88.0576 11.0868 89.7576 8.78676 89.7576 5.98676C89.7576 4.78676 89.3576 3.68676 88.7576 2.68676C68.1576 -2.11324 46.9576 2.38676 30.3576 14.2868Z" fill="#2EA889"/>
</svg>
