<svg width="299" height="302" viewBox="0 0 299 302" fill="none" xmlns="http://www.w3.org/2000/svg">
<path d="M196.63 211.06C196.63 206.36 193.53 202.36 192.13 197.86C180.63 158.76 163.03 184.56 165.33 161.96C167.23 143.56 140.83 134.66 138.63 142.66C136.93 149.06 128.53 152.56 124.53 147.16C119.43 140.36 121.43 130.66 116.93 123.56C114.33 119.46 109.43 116.56 104.33 116.16C99.7299 115.76 94.9299 117.16 90.4299 115.96C82.4299 113.76 78.3299 104.16 70.1299 103.06C69.4299 102.96 68.7299 102.96 68.0299 103.26C66.7299 103.76 66.2299 105.26 65.9299 106.56C65.0299 110.06 64.2299 113.96 66.3299 116.96C68.2299 119.66 72.0299 120.76 73.8299 123.46C75.6299 126.16 75.0299 129.76 73.9299 132.76C72.8299 135.76 71.2299 138.86 71.4299 142.06C71.6299 146.66 75.4299 150.66 79.8299 152.56C84.3299 154.56 89.3299 154.86 94.3299 154.86C95.6299 154.86 96.9299 154.86 98.1299 155.26C102.03 156.56 102.93 161.86 100.43 164.96C99.4299 166.16 98.1299 167.16 97.4299 168.46C95.5299 171.96 98.9299 176.26 102.93 177.46C106.93 178.56 111.23 177.66 115.43 177.16C119.63 176.66 124.33 176.76 127.43 179.36C131.33 182.76 130.93 188.56 133.23 193.16C135.63 198.06 141.13 201.06 146.73 202.36C152.33 203.66 158.13 203.46 163.93 203.76C176.03 204.36 188.13 206.96 198.53 212.76" fill="#4DC591"/>
<path opacity="0.2" d="M94.8748 171.946C98.0748 182.846 107.975 192.046 116.875 199.246C126.275 206.846 136.775 213.146 147.375 219.146C169.575 231.746 192.775 243.446 209.975 262.046C210.475 262.546 211.275 261.846 210.775 261.346C195.675 243.646 174.175 232.346 153.575 221.046C143.175 215.246 132.675 209.446 123.075 202.446C112.275 194.646 99.2748 184.446 95.2748 171.846C95.1748 171.646 94.7748 171.746 94.8748 171.946Z" fill="#444472"/>
<path d="M145.847 239.902C143.747 243.502 140.247 246.002 136.847 248.402C129.447 253.502 121.647 258.202 113.047 260.702C110.847 261.402 108.547 261.902 106.247 261.702C103.947 261.502 101.647 260.602 100.247 258.702C98.3469 256.202 98.5469 252.702 98.1469 249.502C98.0469 248.502 97.7469 247.502 97.0469 246.802C95.3469 245.202 92.7469 246.702 90.9469 248.102C89.4469 249.302 87.9469 250.502 86.5469 251.702C84.7469 253.202 82.3469 254.702 80.1469 253.802C78.3469 253.002 77.5469 250.702 78.0469 248.802C78.5469 246.902 80.0469 245.402 81.6469 244.202C83.2469 243.102 85.1469 242.202 86.7469 241.002C87.1469 240.702 87.5469 240.402 87.6469 240.002C88.0469 238.902 86.8469 237.902 85.8469 237.502C83.4469 236.602 80.7469 236.602 78.4469 237.702C76.1469 238.702 74.4469 240.602 72.4469 242.102C70.4469 243.602 68.0469 244.902 65.6469 244.402C63.3469 243.902 61.4469 242.002 60.2469 239.902C58.4469 236.902 60.2469 230.702 65.4469 230.602C68.3469 230.502 71.2469 230.602 74.1469 230.602C76.0469 230.602 78.4469 230.102 78.7469 228.202C78.9469 226.702 77.3469 225.602 75.9469 225.002C70.4469 222.702 64.1469 223.602 58.2469 222.802C49.1469 221.602 52.5469 206.902 63.3469 207.102C66.1469 207.102 68.9469 207.902 71.4469 209.202C74.3469 210.702 76.8469 213.102 80.0469 213.902C81.1469 214.202 82.4469 214.302 83.5469 213.902C84.6469 213.402 85.4469 212.202 85.1469 211.002C84.8469 209.802 83.6469 209.202 82.6469 208.502C79.8469 206.402 78.6469 202.502 78.9469 199.002C79.1469 196.902 79.8469 194.702 81.6469 193.802C83.8469 192.602 86.6469 193.802 88.2469 195.702C89.9469 197.502 90.7469 199.902 92.0469 202.002C93.3469 204.102 95.3469 206.102 97.8469 206.202C98.2469 206.202 98.6469 206.202 99.0469 205.902C99.3469 205.702 99.4469 205.402 99.6469 205.102C100.547 202.902 99.7469 200.402 99.4469 198.002C99.1469 195.602 99.9469 192.702 102.247 192.102C104.147 191.602 106.047 193.002 106.947 194.802C107.847 196.502 108.147 198.502 108.947 200.302C111.147 205.802 117.947 208.902 123.547 207.102C125.147 206.602 126.647 205.702 128.247 205.402C130.947 204.902 133.847 206.002 136.047 207.702C138.247 209.502 139.847 211.802 141.347 214.202C145.147 220.302 148.547 227.702 146.047 234.502" fill="#4DC591"/>
<g opacity="0.41">
<path opacity="0.41" d="M74.947 225.745C75.247 225.645 75.547 225.645 75.847 225.545C75.547 225.645 75.247 225.645 74.947 225.745C74.947 225.745 74.947 225.645 74.947 225.745Z" fill="#444472"/>
<path opacity="0.41" d="M78.6469 224.745C77.7469 225.045 76.8469 225.345 75.8469 225.545C76.8469 225.445 77.7469 225.145 78.6469 224.745Z" fill="#444472"/>
</g>
<path d="M179.047 251.913C179.928 246.25 184.101 241.898 186.392 236.705C206.459 191.321 220.611 225.789 222.441 198.001C223.963 175.308 254.358 169.272 255.224 179.353C255.835 187.327 264.295 193.068 269.719 187.282C276.596 179.966 276.272 167.896 282.58 160.009C286.237 155.505 292.114 152.869 297.708 153.188C302.803 153.496 307.749 156.102 312.865 155.41C321.973 154.163 328.267 143.214 337.405 143.388C338.186 143.364 338.984 143.481 339.613 143.975C340.934 144.883 341.234 146.77 341.298 148.472C341.607 152.779 341.782 157.744 338.832 161.022C336.268 163.968 331.933 164.637 329.449 167.645C326.886 170.591 326.931 175.073 327.469 178.925C328.086 182.839 329.203 186.764 328.461 190.629C327.345 196.106 322.514 200.325 317.22 201.893C312.004 203.523 306.375 202.923 301.072 202.07C299.696 201.881 298.241 201.63 296.775 201.879C292.255 202.783 290.241 209.082 292.313 213.247C293.079 214.864 294.389 216.272 294.892 218.063C296.234 222.672 291.735 227.278 287.181 227.901C282.565 228.604 278.126 226.649 273.693 225.335C269.259 224.02 264.175 223.212 260.298 225.891C255.365 229.267 254.672 236.474 251.364 241.505C247.827 246.991 241.248 249.712 234.896 250.197C228.623 250.744 222.286 249.59 216.001 248.856C202.963 247.659 191.459 246.775 179.047 251.913Z" fill="#4DC591"/>
<path d="M165.005 248.853C174.489 238.732 184.073 228.611 191.471 216.872C203.327 198.069 209.014 175.515 207.698 153.304C207.518 150.902 206.643 147.795 204.243 147.775C203.143 147.766 202.239 148.358 201.433 149.052C199.319 150.734 197.403 152.618 195.786 154.705C194.673 156.196 193.259 157.884 191.461 157.669C190.162 157.559 189.271 156.451 188.68 155.346C185.724 150.022 187.48 143.236 190.723 138.163C193.965 133.089 198.599 128.928 201.842 123.754C205.085 118.581 206.742 111.794 203.685 106.569C202.896 105.262 201.706 104.052 200.206 104.04C199.506 104.034 198.903 104.329 198.301 104.624C191.674 107.869 189.207 115.949 186.051 122.623C185.745 123.321 185.239 124.117 184.536 124.411C183.433 124.802 182.341 123.893 181.648 122.987C178.091 117.757 181.248 110.883 183.896 105.105C187.461 97.3342 190.134 88.456 187.702 80.2356C187.117 78.4307 186.232 76.6233 184.641 75.6101C180.859 73.3787 176.026 77.3388 175.19 81.632C174.355 85.9252 175.718 90.3367 175.782 94.7374C175.773 95.8373 175.664 96.9364 174.857 97.7298C173.547 98.919 171.254 98.1 170.366 96.5926C169.479 95.0852 169.594 93.186 169.809 91.3878C171.025 77.3974 171.753 62.0029 163.044 50.9303C162.153 49.8229 161.163 48.7147 159.766 48.3031C157.072 47.5808 154.454 49.6591 153.135 52.0483C149.583 58.3191 151.217 66.2329 154.062 72.8567C156.908 79.4805 160.956 85.7142 162.298 92.7256C162.777 95.2296 162.855 97.9304 161.836 100.222C160.817 102.514 158.401 104.394 155.903 104.173C152.606 103.846 150.533 100.528 149.158 97.5169C147.978 95.107 146.798 92.6972 145.617 90.3873C144.928 88.9816 143.942 87.3733 142.342 87.3601C140.343 87.2435 139.321 89.8352 139.304 91.9351C139.255 97.8349 142.509 103.362 146.674 107.597C150.739 111.83 155.712 115.172 160.28 119.01C161.472 120.02 162.663 121.13 163.351 122.535C164.236 124.343 164.118 126.542 163.701 128.538C162.669 132.43 160.141 135.809 156.625 137.78C154.012 139.259 151.007 139.934 148.691 141.815C144.765 144.882 143.715 150.974 146.48 155.197C148.849 158.916 153.336 160.554 157.63 161.289C161.924 162.025 166.425 161.962 170.614 163.297C172.509 163.913 174.402 164.728 175.489 166.337C177.07 168.651 176.644 171.747 175.523 174.238C173.792 178.024 170.665 181.198 166.852 182.766C163.34 184.237 159.438 184.505 155.828 185.675C152.219 186.745 148.499 189.115 147.568 192.807C146.224 198.196 151.385 202.939 156.364 205.48C161.344 207.922 167.227 209.97 169.585 214.99C171.257 218.404 170.723 222.5 169.993 226.194C168.426 234.281 165.861 242.06 162.399 249.532" fill="#4DC591"/>
<path d="M253.602 156.6C257.902 153.3 261.602 149 264.102 144C266.602 138.9 267.602 133.1 268.402 127.3C269.202 120.9 269.802 114.5 270.002 108C260.402 109.4 250.902 111.3 241.902 115C232.902 118.7 224.202 124 218.102 132C207.602 145.8 208.002 164 208.002 164C208.002 164 230.302 174.2 253.602 156.6Z" fill="#4DC591"/>
<g opacity="0.41">
<path opacity="0.41" d="M231.775 179.446C231.675 179.846 231.575 180.146 231.475 180.546C231.575 180.146 231.675 179.846 231.675 179.446C231.675 179.346 231.775 179.446 231.775 179.446Z" fill="#444472"/>
<path opacity="0.41" d="M230.275 183.946C230.675 182.846 231.075 181.746 231.475 180.546C231.175 181.746 230.775 182.846 230.275 183.946Z" fill="#444472"/>
<path opacity="0.47" d="M207.775 233.546C216.175 244.846 224.975 256.346 237.775 262.146C235.475 254.046 233.375 245.846 231.675 237.546C222.875 229.446 216.175 219.446 209.575 209.446C209.475 209.346 209.675 209.246 209.675 209.346C216.375 218.646 223.175 227.746 231.275 235.746C228.775 223.146 227.075 210.346 226.475 197.446C226.375 197.446 226.275 197.446 226.275 197.346C223.375 191.846 221.375 185.946 220.575 179.746C220.575 179.646 220.675 179.646 220.675 179.746C221.675 185.746 223.575 191.346 226.475 196.646C226.375 194.546 226.375 192.346 226.275 190.246C226.175 190.146 226.075 190.046 226.175 189.846L226.275 189.746C226.275 186.146 226.275 182.546 226.475 178.846C226.475 178.746 226.575 178.846 226.575 178.846C226.475 182.346 226.475 185.946 226.575 189.446C227.975 187.946 229.375 186.046 230.275 184.046C229.375 186.246 228.275 188.246 226.575 190.046C226.875 201.446 228.175 212.846 230.075 224.046C240.375 217.246 243.675 204.646 249.375 194.146C249.375 194.046 249.475 194.146 249.475 194.146C243.875 204.846 240.875 217.946 230.475 224.746C230.375 224.846 230.275 224.846 230.175 224.846C230.875 228.946 231.675 232.946 232.575 237.046C232.775 237.246 232.775 237.446 232.675 237.646C233.475 241.146 234.275 244.546 235.175 247.946C245.175 240.346 253.475 230.946 259.275 219.346C259.275 219.246 259.375 219.346 259.375 219.346C253.975 231.246 245.975 241.446 235.375 248.546C237.175 255.646 239.175 262.646 241.375 269.646C252.275 262.946 262.675 254.746 265.975 241.246C265.975 241.146 266.075 241.246 266.075 241.246C262.975 254.946 252.575 263.446 241.675 270.446C242.375 272.646 243.075 274.746 243.775 276.946C244.075 277.846 242.775 278.346 242.475 277.446C240.875 272.646 239.475 267.846 238.075 263.046C224.575 257.446 215.975 245.646 207.675 233.646C207.575 233.546 207.675 233.446 207.775 233.546Z" fill="#444472"/>
</g>
<path opacity="0.05" d="M57.1749 298.404C37.6749 298.604 8.57494 287.804 13.4749 263.604C16.7749 247.204 2.97494 231.804 0.474936 215.304C-2.42506 196.304 8.17493 176.104 26.2749 166.204C32.6749 162.704 40.2749 160.204 44.6749 154.604C58.3749 137.604 35.3749 116.404 44.1749 93.6038C49.2749 80.5038 64.1749 73.3038 84.0749 74.5038C104.475 75.8038 124.075 72.0038 126.575 53.5038C128.675 38.6038 128.475 28.1038 144.275 15.3038C170.475 -5.99622 235.975 -8.79622 249.275 31.2038C253.175 42.8038 264.175 68.2038 302.475 46.7038C332.275 29.9038 402.875 49.3038 380.275 97.7038C371.375 116.804 388.875 122.904 415.975 132.804C436.275 140.204 453.275 177.104 411.675 208.804C405.675 213.304 419.675 226.204 425.475 230.904C458.875 257.904 427.475 297.704 396.075 298.404C396.075 298.404 76.6749 298.204 57.1749 298.404ZM103.375 39.5038C92.2749 37.0038 88.7749 48.5038 89.1749 56.8038C89.2749 58.4038 89.3749 60.1038 90.0749 61.5038C91.1749 63.5038 93.3749 64.8038 95.5749 65.4038C99.1749 66.4038 103.175 66.2038 106.875 65.4038C109.275 64.9038 111.675 64.1038 113.375 62.4038C120.175 55.6038 111.675 41.3038 103.375 39.5038ZM292.875 34.6038C292.675 37.5038 290.375 40.0038 287.675 41.2038C284.975 42.5038 281.875 42.8038 278.875 43.0038C274.575 43.3038 269.575 43.3038 266.675 40.2038C264.675 38.1038 264.175 34.9038 264.575 32.1038C265.775 24.9038 270.375 17.8038 278.775 18.7038C285.175 19.5038 293.175 28.5038 292.875 34.6038ZM303.375 17.3038C302.375 18.0038 300.975 18.2038 299.775 17.9038C299.175 17.8038 298.475 17.5038 297.975 17.1038C294.375 14.5038 295.775 9.60378 300.375 10.1038C303.975 10.5038 307.475 14.6038 303.375 17.3038ZM412.175 107.304C413.375 109.004 414.275 111.104 413.575 113.004C413.075 114.404 411.775 115.404 410.475 116.004C407.675 117.304 404.275 117.004 401.375 115.804C398.475 114.704 395.975 112.804 393.575 110.804C392.475 109.904 391.475 109.004 390.875 107.804C390.475 106.904 390.375 105.904 390.375 105.004C390.275 103.304 390.475 101.604 390.975 100.004C391.675 97.9038 392.975 96.0038 394.275 94.3038C396.275 91.7038 399.175 88.6038 402.975 89.2038C405.275 89.6038 405.775 90.9038 405.875 93.0038C405.875 95.3038 405.375 97.5038 406.275 99.8038C407.275 102.804 410.375 104.804 412.175 107.304ZM18.7749 156.504C15.0749 159.604 8.77494 159.104 5.57494 155.404C-5.62506 142.404 4.27494 110.404 25.1749 115.004C32.9749 116.704 38.8749 125.404 35.3749 133.004C33.3749 137.304 28.0749 139.504 25.5749 143.504C22.9749 147.704 22.7749 153.204 18.7749 156.504Z" fill="white"/>
</svg>
