<svg t="1642317521751" class="icon" viewBox="0 0 1024 1024" version="1.1" xmlns="http://www.w3.org/2000/svg" p-id="3107" width="32" height="32"><path d="M691.437 259l-42.48 42.48 181.436 181.434H334.917v0.023l-1.221 0.01C199.84 485.118 92 594.303 92 728.676c0 3.66 0.08 7.302 0.238 10.924h60.153c-0.21-3.615-0.316-7.257-0.316-10.924 0-102.552 83.134-185.686 185.685-185.686H829.749L649.427 723.313l42.48 42.48L923.61 534.087c5.74-5.478 9.323-13.203 9.323-21.765 0-9.975-4.862-18.814-12.345-24.277l-0.37-0.266L691.436 259z" p-id="3108" fill="#4ab88a"></path></svg>