<svg t="1642342765501" class="icon" viewBox="0 0 1126 1024" version="1.1" xmlns="http://www.w3.org/2000/svg" p-id="17147" width="158" height="158"><path d="M941.769299 331.705983c-16.191453-36.321368-46.823932-19.254701-72.205128-20.567521s-49.011966 26.25641-69.579487 7.876923c-17.94188-15.753846-28.006838-42.010256-35.883761-65.203419-10.502564-30.194872-34.57094-51.2-53.825641-83.145299 68.266667 26.25641 109.401709 1.750427 129.094017-30.632479 23.193162-37.196581 16.62906-86.208547-14.441025-115.090598-31.070085-28.444444-79.206838-33.25812-113.777778-10.502564-44.635897 29.319658-51.2 66.953846-21.005128 141.347008-48.574359-15.316239-88.834188-38.509402-131.719659-55.138461-17.066667-6.564103-33.25812-23.630769-52.950427-15.31624-52.512821 21.442735-104.588034 43.323077-155.788034 68.266667-31.507692 15.316239-38.071795 36.758974-24.94359 61.264957 10.940171 19.692308 38.071795 25.818803 65.203419 14.441026 23.193162-10.064957 45.948718-20.129915 68.266667-31.945299 37.196581-19.692308 70.454701-20.129915 106.776068 5.251282 23.630769 16.191453 20.129915 26.25641 2.625641 42.88547-39.384615 37.196581-81.394872 72.205128-114.215385 115.965812-24.068376 31.945299-23.193162 65.203419 6.126496 92.772649 35.446154 34.133333 72.642735 66.516239 108.964103 99.774359 11.377778 10.502564 21.005128 21.005128-5.251282 25.818804-35.446154 6.564103-70.017094 16.191453-105.025641 23.193162-25.381197 5.251282-46.823932 29.319658-42.010257 49.88718 5.251282 24.505983 35.883761 40.697436 62.140171 34.57094 69.579487-16.62906 139.158974-32.820513 209.176068-47.261539 35.883761-7.439316 52.512821-43.323077 31.070086-72.205128s-41.57265-52.512821-61.264957-79.644444C611.376137 424.041026 611.813744 424.041026 669.140239 367.589744c32.382906-31.507692 31.945299-31.070085 56.451282 9.62735 10.502564 17.94188 19.692308 39.384615 45.948718 37.196581 51.637607-3.938462 101.962393-17.504274 151.849573-30.632478 19.254701-4.813675 26.694017-33.695726 18.379487-52.075214m-261.251282 321.203419c-24.94359 18.379487-59.952137 7.876923-88.396581 24.505983-8.31453 4.376068-15.316239 10.940171-20.567521 18.379487-24.94359 37.634188-47.699145 76.581197-72.205129 114.215384-14.441026 22.317949-8.752137 41.57265 9.189744 55.138462s43.323077 14.441026 59.076923-7.001709c44.198291-59.51453 87.083761-120.34188 129.969231-180.731624 11.815385-16.62906 1.312821-22.317949-17.066667-24.505983M938.706051 1024h-888.34188c-20.567521 0-37.196581-16.62906-37.196581-37.196581s16.62906-37.196581 37.196581-37.196581h888.34188c20.567521 0 37.196581 16.62906 37.196581 37.196581s-16.62906 37.196581-37.196581 37.196581zM326.056479 852.895726h-275.692308c-20.567521 0-37.196581-16.62906-37.196581-37.196581s16.62906-37.196581 37.196581-37.196581h275.692308c20.567521 0 37.196581 16.62906 37.196581 37.196581s-16.62906 37.196581-37.196581 37.196581z" p-id="17148" fill="#dbdbdb"></path></svg>