<svg t="1642949292026" class="icon" viewBox="0 0 1024 1024" version="1.1" xmlns="http://www.w3.org/2000/svg" p-id="8461" width="32" height="32"><path d="M917.674667 65.024h-814.08c-21.333333 0-38.570667 17.408-38.570667 38.741333v644.778667c0 21.333333 17.237333 38.570667 38.570667 38.570667h814.08c21.333333 0 38.570667-17.408 38.570666-38.570667V103.765333c0.170667-21.333333-17.237333-38.741333-38.570666-38.741333z m18.944 630.442667h-89.6l16.042666 16.042666c3.925333 3.925333 3.925333 10.410667 0 14.506667l-16.384 16.384-16.384 16.384c-1.877333 1.877333-4.437333 3.072-7.168 3.072s-5.290667-1.024-7.168-3.072l-45.226666-45.226667c-5.12-4.949333-13.482667-3.413333-16.554667 3.072l-11.093333 24.405334c-3.754667 8.362667-15.872 7.850667-18.944-0.682667l-16.042667-44.714667H84.821333v-602.453333h851.626667l0.170667 602.282667z m0 0" fill="#DFDFDF" p-id="8462"></path><path d="M655.701333 935.424H374.784c-2.389333 0-4.778667-1.194667-6.144-3.242667-1.365333-2.048-1.536-4.608-0.682667-6.826666l47.274667-113.493334c1.194667-2.730667 3.754667-4.437333 6.826667-4.437333h186.197333c2.901333 0 5.632 1.706667 6.826667 4.437333l47.274666 113.493334c1.024 2.218667 0.682667 4.778667-0.682666 6.826666-1.194667 2.048-3.584 3.242667-5.973334 3.242667z m-269.824-14.677333h258.901334l-41.130667-98.816H427.008l-41.130667 98.816z m0 0" fill="#4A555F" p-id="8463"></path><path d="M416.085333 900.608l24.405334-58.538667h149.674666l24.405334 58.538667H416.085333z m0 0" fill="#DFDFDF" p-id="8464"></path><path d="M781.482667 994.474667H249.173333c-4.096 0-7.338667-3.242667-7.338666-7.338667v-59.050667c0-1.877333 0.853333-3.754667 2.218666-5.12 1.365333-1.365333 3.242667-2.218667 5.12-2.218666h532.309334c4.096 0 7.338667 3.242667 7.338666 7.338666v59.050667c0 4.096-3.413333 7.338667-7.338666 7.338667z m-524.970667-14.677334h517.632v-44.373333H256.512v44.373333z m0 0" fill="#4A555F" p-id="8465"></path><path d="M62.464 979.797333h905.557333v14.677334H62.464z" fill="#4A555F" p-id="8466"></path><path d="M480.256 742.229333c0 12.8 6.826667 24.576 17.749333 30.890667 11.093333 6.314667 24.576 6.314667 35.669334 0 11.093333-6.314667 17.749333-18.090667 17.749333-30.890667 0-12.8-6.826667-24.576-17.749333-30.890666-11.093333-6.314667-24.576-6.314667-35.669334 0-10.922667 6.314667-17.749333 18.090667-17.749333 30.890666z m0 0" fill="#FFFFFF" p-id="8467"></path><path d="M515.925333 785.237333c-23.722667 0-43.008-19.285333-43.008-43.008 0-23.722667 19.285333-43.008 43.008-43.008 23.722667 0 43.008 19.285333 43.008 43.008 0 23.722667-19.285333 43.008-43.008 43.008z m0-71.338666c-15.530667 0-28.330667 12.629333-28.330666 28.330666 0 15.530667 12.629333 28.330667 28.330666 28.330667 15.530667 0 28.330667-12.629333 28.330667-28.330667 0-15.530667-12.629333-28.330667-28.330667-28.330666z m0 0" fill="#4A555F" p-id="8468"></path><path d="M917.845333 821.930667h-814.08c-22.016 0-42.666667-9.728-56.661333-26.794667-1.536-1.877333-2.901333-3.754667-4.266667-5.632-1.365333-2.048-2.56-3.925333-3.754666-6.144-1.194667-2.048-2.218667-4.266667-3.072-6.314667-0.853333-2.218667-1.706667-4.437333-2.389334-6.826666-1.024-3.413333-1.877333-6.997333-2.389333-10.752-0.512-3.754667-0.853333-7.509333-0.853333-11.093334V103.765333c0-40.618667 32.938667-73.557333 73.557333-73.557333h814.08c40.448 0 73.557333 32.938667 73.557333 73.557333v644.778667c-0.341333 40.448-33.28 73.386667-73.728 73.386667zM103.765333 44.885333c-32.426667 0-58.88 26.453333-58.88 58.88v644.778667c0 3.072 0.170667 6.144 0.682667 8.874667 0.512 2.901333 1.024 5.802667 2.048 8.533333 1.194667 3.584 2.56 7.168 4.437333 10.410667 1.024 1.706667 1.877333 3.413333 3.072 4.949333 1.024 1.536 2.218667 3.072 3.413334 4.437333 11.264 13.653333 27.818667 21.333333 45.397333 21.333334h814.08c32.426667 0 58.88-26.453333 58.88-58.88V103.765333c0-32.426667-26.453333-58.88-58.88-58.88H103.765333z m0 0" fill="#4A555F" p-id="8469"></path><path d="M822.954667 769.194667c-4.608 0-9.216-1.877333-12.458667-5.12l-45.226667-45.226667c-0.682667-0.682667-1.536-1.024-2.56-0.853333-0.853333 0.170667-1.706667 0.853333-2.048 1.706666l-11.093333 24.405334c-2.901333 6.485333-9.386667 10.581333-16.725333 10.24-7.168-0.341333-13.482667-4.778667-15.872-11.605334l-59.904-167.253333c-0.682667-1.877333-1.024-3.925333-1.024-5.973333 0-5.632 2.730667-10.922667 7.509333-14.336 4.778667-3.242667 10.581333-4.096 16.042667-2.218667l167.253333 59.904c6.826667 2.389333 11.434667 8.704 11.605333 15.872 0.341333 7.168-3.754667 13.824-10.24 16.725333l-24.405333 11.093334c-0.853333 0.341333-1.536 1.194667-1.706667 2.048-0.170667 0.512-0.170667 1.706667 0.853334 2.56l45.226666 45.226666c6.826667 6.826667 6.826667 17.92 0 24.746667l-32.768 32.768c-3.242667 3.413333-7.68 5.290667-12.458666 5.290667zM763.392 703.146667c4.608 0 9.045333 1.877333 12.458667 5.12l45.226666 45.226666c0.682667 0.682667 1.536 0.853333 2.048 0.853334 0.682667 0 1.536-0.341333 2.048-0.853334l32.768-32.768c1.024-1.024 1.024-2.901333 0-4.096l-45.226666-45.226666c-4.096-4.096-5.973333-9.898667-4.778667-15.701334 1.024-5.632 4.778667-10.410667 10.069333-12.8l24.405334-11.093333c1.536-0.682667 1.706667-2.048 1.706666-2.730667 0-0.682667-0.341333-2.048-1.877333-2.56l-167.253333-59.904c-0.853333-0.341333-1.877333-0.170667-2.56 0.341334-0.853333 0.512-1.194667 1.365333-1.194667 2.218666 0 0.341333 0 0.682667 0.170667 0.853334l59.904 167.253333c0.512 1.536 1.877333 1.877333 2.56 1.877333 0.682667 0 2.048-0.170667 2.730666-1.706666l11.093334-24.405334c2.56-5.802667 8.704-9.898667 15.701333-9.898666z m0 0" fill="#4A555F" p-id="8470"></path><path d="M787.797333 696.149333c-6.485333-6.485333-15.36-10.24-24.405333-10.069333-10.922667 0-21.162667 5.12-27.818667 13.824l-38.229333-106.666667 106.666667 38.229334c-6.997333 5.290667-11.605333 12.8-13.312 21.333333-2.048 11.264 1.536 22.698667 9.557333 30.72l35.328 35.157333-12.629333 12.629334-35.157334-35.157334z m0 0" fill="#F58E6F" p-id="8471"></path><path d="M909.141333 675.328h-89.770666c-1.877333 0-3.754667-0.853333-5.12-2.218667l-1.536-1.536c-4.096-4.096-5.802667-9.898667-4.778667-15.530666 1.024-5.632 4.778667-10.410667 10.069333-12.8l24.405334-11.093334c1.536-0.682667 1.706667-2.048 1.706666-2.730666 0-0.682667-0.341333-2.048-1.877333-2.56l-167.253333-59.904c-1.536-0.512-2.56 0.170667-2.901334 0.682666-0.512 0.512-1.194667 1.536-0.682666 2.901334l33.962666 94.890666c0.853333 2.218667 0.512 4.778667-0.853333 6.656s-3.584 3.072-5.973333 3.072H112.469333c-4.096 0-7.338667-3.242667-7.338666-7.338666V120.832c0-1.877333 0.853333-3.754667 2.218666-5.12 1.365333-1.365333 3.242667-2.218667 5.12-2.218667h796.672c4.096 0 7.338667 3.242667 7.338667 7.338667v547.328c0 1.877333-0.853333 3.754667-2.218667 5.12-1.365333 1.365333-3.242667 2.048-5.12 2.048z m-86.698666-14.677333h79.36V128H119.808v532.650667H687.786667l-30.549334-85.162667c-2.389333-6.485333-0.682667-13.482667 4.096-18.261333 4.778667-4.949333 11.946667-6.485333 18.261334-4.096l167.253333 59.904c6.826667 2.389333 11.434667 8.704 11.605333 15.872 0.341333 7.168-3.754667 13.824-10.24 16.725333l-24.405333 11.093333c-0.853333 0.341333-1.536 1.194667-1.706667 2.048 0 0.341333-0.170667 1.194667 0.341334 1.877334z m0 0" fill="#4A555F" p-id="8472"></path><path d="M909.141333 675.328h-89.770666c-1.877333 0-3.754667-0.853333-5.12-2.218667l-1.536-1.536c-4.096-4.096-5.802667-9.898667-4.778667-15.701333 1.024-5.632 4.778667-10.410667 10.069333-12.8l24.405334-11.093333c1.536-0.682667 1.706667-2.048 1.706666-2.730667 0-0.682667-0.341333-2.048-1.877333-2.56l-167.253333-59.904c-1.536-0.512-2.56 0.170667-2.901334 0.682667-0.512 0.512-1.194667 1.536-0.682666 2.901333l33.962666 94.890667c0.853333 2.218667 0.512 4.778667-0.853333 6.656s-3.584 3.072-5.973333 3.072H112.469333c-4.096 0-7.338667-3.242667-7.338666-7.338667V120.661333c0-1.877333 0.853333-3.754667 2.218666-5.12 1.365333-1.365333 3.242667-2.218667 5.12-2.218666h796.672c4.096 0 7.338667 3.242667 7.338667 7.338666v547.328c0 4.096-3.242667 7.338667-7.338667 7.338667z m-86.698666-14.677333h79.36V128H119.808v532.650667H687.786667l-30.549334-85.162667c-2.389333-6.485333-0.682667-13.482667 4.096-18.261333 4.778667-4.778667 11.946667-6.485333 18.261334-4.096l167.082666 59.904c6.826667 2.389333 11.434667 8.704 11.605334 15.872 0.341333 7.168-3.754667 13.824-10.24 16.725333l-24.405334 11.093333c-0.853333 0.341333-1.536 1.194667-1.706666 2.048 0.170667 0.341333 0.170667 1.024 0.512 1.877334z m0 0" fill="#4A555F" p-id="8473"></path><path d="M193.536 629.930667h-14.677333V218.965333c0-28.16 23.04-51.2 51.2-51.2h561.493333c28.16 0 51.2 22.869333 51.2 51.2v360.789334h-14.677333V218.965333c0-20.138667-16.384-36.522667-36.522667-36.522666h-561.493333c-20.138667 0-36.522667 16.384-36.522667 36.522666v410.965334z m0 0" fill="#4A555F" p-id="8474"></path><path d="M210.602667 294.058667V629.76h444.416l-16.384-49.493333c-9.045333-27.136 16.896-52.736 43.861333-43.690667l128.341333 43.008V294.058667H210.602667z m0 0" fill="#FFD452" p-id="8475"></path><path d="M186.197333 259.754667h649.386667v14.677333H186.197333z" fill="#4A555F" p-id="8476"></path><path d="M236.373333 221.525333c0 6.826667 3.584 13.141333 9.557334 16.554667 5.973333 3.413333 13.312 3.413333 19.285333 0 5.973333-3.413333 9.557333-9.728 9.557333-16.554667 0-10.581333-8.533333-19.285333-19.285333-19.285333-10.581333 0-19.114667 8.704-19.114667 19.285333z m0 0M299.008 221.525333c0 6.826667 3.584 13.141333 9.557333 16.554667 5.973333 3.413333 13.312 3.413333 19.285334 0 5.973333-3.413333 9.557333-9.728 9.557333-16.554667 0-10.581333-8.533333-19.285333-19.285333-19.285333-10.581333 0-19.114667 8.704-19.114667 19.285333z m0 0M361.642667 221.525333c0 10.581333 8.533333 19.285333 19.285333 19.285334 10.581333 0 19.285333-8.533333 19.285333-19.285334 0-10.581333-8.533333-19.285333-19.285333-19.285333-10.581333 0-19.285333 8.704-19.285333 19.285333z m0 0" fill="#F58E6F" p-id="8477"></path><path d="M338.602667 479.744c-2.901333 0-5.290667-1.706667-6.656-4.096l-34.304-70.144 13.141333-6.485333 27.818667 57.002666 17.749333-34.304c1.194667-2.389333 3.754667-3.925333 6.485333-3.925333 2.730667 0 5.290667 1.536 6.485334 3.925333l17.749333 34.304 27.818667-57.002666 13.141333 6.485333-34.304 70.144c-1.194667 2.56-3.754667 4.096-6.485333 4.096-2.901333 0-5.290667-1.536-6.656-3.925333l-17.92-34.645334-17.92 34.645334c-1.024 2.389333-3.413333 3.925333-6.144 3.925333z m201.045333 0c-2.730667 0-5.290667-1.536-6.485333-3.925333l-17.92-34.645334-17.92 34.645334c-1.194667 2.389333-3.754667 3.925333-6.656 3.925333-2.730667 0-5.290667-1.706667-6.485334-4.096l-34.304-70.144 13.141334-6.485333 27.818666 57.002666 17.749334-34.304c1.194667-2.389333 3.754667-3.925333 6.485333-3.925333s5.290667 1.536 6.485333 3.925333l17.749334 34.304 27.818666-57.002666 13.141334 6.485333-34.133334 70.144c-1.194667 2.389333-3.754667 4.096-6.485333 4.096z m152.234667 0c-2.730667 0-5.290667-1.536-6.485334-3.925333l-17.92-34.645334-17.92 34.645334c-1.194667 2.389333-3.754667 3.925333-6.656 3.925333-2.730667 0-5.290667-1.706667-6.485333-4.096l-34.304-70.144 13.141333-6.485333 27.818667 57.002666 17.749333-34.304c1.194667-2.389333 3.754667-3.925333 6.485334-3.925333 2.730667 0 5.290667 1.536 6.485333 3.925333l17.749333 34.304 27.818667-57.002666 13.141333 6.485333-34.304 70.144c-0.853333 2.389333-3.413333 4.096-6.314666 4.096z m-259.413334-17.066667h14.677334v14.165334h-14.677334v-14.165334z m153.770667 0h14.677333v14.165334h-14.677333v-14.165334z m0 0" fill="#4A555F" p-id="8478"></path></svg>