<svg t="1642349334561" class="icon" viewBox="0 0 1026 1024" version="1.1" xmlns="http://www.w3.org/2000/svg" p-id="13515" width="32" height="32"><path d="M826.153581 520.462528l17.251695-229.167593c1.048047-13.987319-17.253699-20.139335-24.868571-8.360328L663.31153 523.101683c-6.208125 9.598748-20.774575 7.662967-24.259381-3.216282L533.722427 190.762583c-4.007828-12.546505-21.762505-12.546505-25.776345 0L402.606341 519.883397c-3.474787 10.881252-18.051256 12.813025-24.249363 3.216282L222.544658 282.034849c-7.570787-11.716885-25.778348-5.691115-24.868572 8.236086l14.98126 228.875022c0.735436 11.304078-11.905252 18.458051-21.221448 12.00144l-170.120266-117.99045c-12.352125-8.562724-27.273268 6.294294-18.85683 18.748619 92.837323 137.424407 161.415264 214.699335 196.569926 400.852915 1.214372 6.388477 6.755194 11.037558 13.253886 11.037558h614.989151c6.504705 0 12.04753-4.641065 13.259898-11.029542 33.511452-176.923554 97.19784-246.715867 183.217848-380.12443 7.827288-12.133699-6.308321-26.395554-18.552235-18.740603l-158.363303 99.053464c-9.408376 5.879483-21.512016-1.432798-20.680392-12.4924z m0 0" fill="#FAB700" p-id="13516"></path><path d="M834.856579 534.11319c-5.236227-2.01193-9.189949-7.17802-8.696986-13.650662l7.923475-105.285636 4.132071-54.903233c-0.51701 0.861683-0.939836 1.543014-1.252446 2.027961-93.133902 144.446121-165.00227 228.311922-209.032266 394.614732-4.102012 15.506286-18.199546 26.271311-34.238873 26.271311H188.281738a911.672611 911.672611 0 0 1 10.755006 49.626928 13.492352 13.492352 0 0 0 13.24587 10.989464h614.989151a13.492352 13.492352 0 0 0 13.245871-10.99748c33.509448-176.945597 97.195836-246.741918 183.223859-380.148477 0.008016-0.008016 0.008016-0.008016 0.008016-0.016031 1.470873-2.270434 2.168235-4.619022 2.246387-6.889456 0.344673-9.823186-10.84919-18.065284-20.798622-11.851147l-158.363303 99.053464c-0.587147 0.36872-1.190325 0.681331-1.793503 0.947851a13.151687 13.151687 0 0 1-5.526795 1.134215 13.446262 13.446262 0 0 1-4.657096-0.9218z m0 0" fill="#FAA200" p-id="13517"></path><path d="M502.707851 731.154035l-75.771992-75.771992a16.025299 16.025299 0 0 1 0-22.670278l75.771992-75.771992c6.254215-6.262231 16.408047-6.262231 22.670278 0l75.771992 75.771992a16.025299 16.025299 0 0 1 0 22.670278l-75.771992 75.771992a16.025299 16.025299 0 0 1-22.670278 0z m0 0" fill="#FF738B" p-id="13518"></path><path d="M502.371194 557.276431l-18.159468 18.151452 61.321769 61.323773a10.314145 10.314145 0 0 1 0 14.590497l-61.321769 61.315757 18.159468 18.159468a16.498223 16.498223 0 0 0 23.343593 0l75.098677-75.098677a16.498223 16.498223 0 0 0 0-23.343593l-75.098677-75.106693a16.504235 16.504235 0 0 0-23.343593 0.008016z m0 0" fill="#EE4A84" p-id="13519"></path><path d="M798.427429 694.482411c0 27.858411-22.576094 50.440517-50.434505 50.440517-27.852399 0-50.434505-22.58411-50.434505-50.440517 0-27.852399 22.58411-50.434505 50.434505-50.434505 27.858411 0 50.434505 22.58411 50.434505 50.432501z m0 0M343.250411 694.482411c0 27.858411-22.58411 50.440517-50.436509 50.440517-27.858411 0-50.442521-22.58411-50.44252-50.440517 0-27.852399 22.58411-50.434505 50.44252-50.434505 27.852399 0 50.434505 22.58411 50.434505 50.432501z m0 0" fill="#1DC2FF" p-id="13520"></path><path d="M747.992924 644.047906c-8.001628 0-15.562395 1.869652-22.285527 5.190137 16.672564 8.226067 28.146975 25.391593 28.146975 45.242364s-11.474411 37.018301-28.146975 45.246372a50.210067 50.210067 0 0 0 22.283523 5.196149c27.860415 0 50.436509-22.58411 50.436509-50.440517 0-27.852399-22.576094-50.434505-50.434505-50.434505z m0 0M292.813902 644.047906c-8.00764 0-15.570411 1.869652-22.285526 5.190137 16.672564 8.226067 28.148978 25.391593 28.148978 45.242364S287.200939 731.500712 270.528376 739.728783a50.157965 50.157965 0 0 0 22.285526 5.196149c27.852399 0 50.434505-22.58411 50.434505-50.440517 0-27.852399-22.58411-50.434505-50.434505-50.434505z m0 0" fill="#00A2FF" p-id="13521"></path></svg>