<svg t="1642949376859" class="icon" viewBox="0 0 1300 1024" version="1.1" xmlns="http://www.w3.org/2000/svg" p-id="12184" width="32" height="32"><path d="M92.192926 65.85209c-14.548373 0-26.340836 11.792463-26.340836 26.340836v724.37299c0 14.548373 11.792463 26.340836 26.340836 26.340836h1000.951769c14.548373 0 26.340836-11.792463 26.340836-26.340836V92.192926c0-14.548373-11.792463-26.340836-26.340836-26.340836H92.192926z m0-65.85209h1000.951769c50.916836 0 92.192926 41.27609 92.192926 92.192926v724.37299c0 50.916836-41.27609 92.192926-92.192926 92.192926H92.192926c-50.916836 0-92.192926-41.27609-92.192926-92.192926V92.192926C0 41.27609 41.27609 0 92.192926 0z m252.722212 388.593183c-1.315395-22.837505 7.714572-33.624077 27.089904-32.356424 9.192952 0.352309 16.393878 4.527331 21.602778 12.523421 5.207254 7.99609 7.63555 18.952232 7.279948 32.871717l-0.29798 156.062868c-1.070096 27.779704-9.830071 42.204605-26.279923 43.276348-19.809955 1.275884-29.66472-8.926251-29.559357-30.608052l-0.312797 5.46737c-14.21582 22.019293-45.202521 29.616977-92.958457 22.786469-28.513955-4.515807-51.094637-17.286174-67.743691-38.309453-21.856309-25.527563-29.952823-57.332476-24.29119-95.418032 5.228656-33.005068 20.583717-58.707138 46.065183-77.10292 24.230277-17.491961 51.865106-23.77919 82.904489-18.863331 31.032797 4.552026 49.866495 11.109248 56.501093 19.671666zM212.37299 486.212322c0 17.409646 6.191743 32.371241 18.576875 44.884784 12.383486 12.511897 27.136 18.769492 44.255897 18.769492 17.48373 0 32.417338-6.165402 44.80247-18.497852 11.65582-13.056823 17.48373-28.108965 17.483729-45.158071 0-17.045814-6.009003-31.826315-18.030302-44.339858-12.019653-12.511897-26.772167-18.769492-44.255897-18.769492-17.119897 0-31.872412 6.255949-44.255897 18.769492C218.563087 454.382714 212.37299 469.163215 212.37299 486.210675z m806.330856 68.519099c-21.948502 30.374277-55.236733 46.463588-99.866341 48.271229-33.655357 1.086559-63.65263-8.857106-89.99182-29.829351-24.143023-22.417698-36.032617-51.705415-35.665492-87.863151-0.367125-38.325916 10.241646-67.97582 31.824669-88.948064 25.973711-24.225338 55.603859-35.976643 88.893736-35.253917 47.189608 2.169826 79.565788 15.547678 97.123601 40.136849 8.77973 14.461119 8.77973 26.935151 0 37.42045-11.705209 9.402032-25.606585 7.413299-41.702482-5.964553-16.828502-13.377852-35.484399-20.068424-55.969338-20.068424-14.633981 0.362186-28.900836 6.509479-42.800565 18.441878-13.901376 12.292939-21.217543 30.010444-21.950148 53.150868-0.730958 23.140424 6.402469 40.135203 21.401929 50.982688 13.168772 10.486945 30.543846 15.728772 52.126868 15.728772 16.097543 0 33.472617-8.136026 52.130161-24.406431 20.117814-18.440232 35.300013-21.513878 45.543305-9.219293 9.877814 12.653479 9.510688 25.127511-1.098083 37.42045z m-527.697492 12.808232l5.049209-251.49901c0.416514-25.385981 8.876862-38.839563 25.381042-40.357453 20.628167-1.898186 30.830302 9.309839 30.601466 33.624077l-1.754958 91.567331c21.742714-18.674006 48.812862-25.70701 81.208797-21.102302 35.197942 5.469016 60.587215 18.432 76.166174 38.890598 20.318662 24.984283 28.057929 53.284219 23.221093 84.9031-6.226315 39.491498-21.724605 67.753569-46.499807 84.787858-21.596193 15.748527-51.675781 22.067035-90.240412 18.957171-22.4391-2.480977-39.3351-10.256463-50.683061-23.328103-2.775666 15.746881-11.173453 22.567511-25.193363 20.463537-18.14719-1.722032-27.229839-14.024849-27.25618-36.906804z m72.621685-41.658032c10.78328 14.363987 24.45582 22.822688 41.019266 25.377749 17.343794 2.324579 32.847023-1.173814 46.511332-10.493531 13.664309-9.319717 22.032463-22.690984 25.104463-40.110508 3.007794-17.063923-0.477428-32.432154-10.457312-46.104694s-23.398894-21.994598-40.258675-24.96782c-17.577569-3.099987-33.303048 0.082315-47.178084 9.550199-13.875035 9.466238-22.346907 22.909942-25.418907 40.329466-3.072 17.419524 0.487305 32.893119 10.677917 46.419139zM1234.726688 293.041801c0-18.185055 14.74099-32.926045 32.926045-32.926045s32.926045 14.74099 32.926045 32.926045v579.498392c0 83.648617-67.81119 151.459807-151.459807 151.459807H398.405145c-18.185055 0-32.926045-14.74099-32.926045-32.926045s14.74099-32.926045 32.926045-32.926045h750.713826c47.280154 0 85.607717-38.327563 85.607717-85.607717V293.041801z" p-id="12185"></path></svg>