<?xml version="1.0" standalone="no"?><!DOCTYPE svg PUBLIC "-//W3C//DTD SVG 1.1//EN" "http://www.w3.org/Graphics/SVG/1.1/DTD/svg11.dtd"><svg t="1642823753282" class="icon" viewBox="0 0 1024 1024" version="1.1" xmlns="http://www.w3.org/2000/svg" p-id="10743" xmlns:xlink="http://www.w3.org/1999/xlink" width="32" height="32"><defs><style type="text/css"></style></defs><path d="M452.246546 405.09647a63.4 63.4 0 1 0 119.68639-41.873716 63.4 63.4 0 1 0-119.68639 41.873716Z" p-id="10744"></path><path d="M864 63.9H162c-35.3 0-64 28.7-64 64v767.6c0 35.3 28.7 64 64 64h702c35.3 0 64-28.7 64-64V127.9c0-35.3-28.7-64-64-64zM256 894.2c-35 0-63.4-28.4-63.4-63.4s28.4-63.4 63.4-63.4 63.4 28.4 63.4 63.4c0.1 35-28.3 63.4-63.4 63.4z m34.2-381.9c-70.7-122.5-28.8-279.2 93.8-349.9s279.2-28.8 349.9 93.8c59.5 103.1 39.2 230.5-41.8 310.4l-73.5-94.9-84.3 48.6 45.5 111.1c-109.6 30.1-230-15.9-289.6-119.1zM689.9 820L556 527.9l58.1-33.6L800 756.4 689.9 820z" p-id="10745"></path></svg>