<?xml version="1.0" standalone="no"?><!DOCTYPE svg PUBLIC "-//W3C//DTD SVG 1.1//EN" "http://www.w3.org/Graphics/SVG/1.1/DTD/svg11.dtd"><svg t="1642822811710" class="icon" viewBox="0 0 1024 1024" version="1.1" xmlns="http://www.w3.org/2000/svg" p-id="7533" xmlns:xlink="http://www.w3.org/1999/xlink" width="32" height="32"><defs><style type="text/css"></style></defs><path d="M512 0q68.179334 2.529975 114.268884 47.979531 46.08955 45.449556 47.349538 113.638891v323.226843q-1.259988 69.449322-47.349538 114.898878-46.08955 45.459556-114.268884 46.719544-68.179334-1.259988-114.268884-46.719544-46.08955-45.459556-47.349538-114.898878V161.618422q1.259988-68.179334 47.349538-113.638891Q443.820666 2.529975 512 0z m377.526313 484.845265q-3.789963 146.46857-93.429087 248.747571-89.639125 102.269001-229.807756 124.998779v165.408385H457.71053V858.591615q-140.158631-22.719778-229.797756-124.998779-89.649125-102.269001-93.439087-248.747571h108.588939q0 54.29947 20.199803 103.538989 20.199803 49.239519 58.709427 87.119149 38.509624 37.87963 87.129149 58.709427 48.609525 20.839796 102.898995 20.839796 54.28947 0 102.898995-20.839796 48.619525-20.829797 87.129149-58.709427t58.709427-87.119149q20.199803-49.239519 20.199803-103.538989h108.588939z" fill="#666666" p-id="7534"></path></svg>