<?xml version="1.0" standalone="no"?><!DOCTYPE svg PUBLIC "-//W3C//DTD SVG 1.1//EN" "http://www.w3.org/Graphics/SVG/1.1/DTD/svg11.dtd"><svg t="1642823317665" class="icon" viewBox="0 0 1024 1024" version="1.1" xmlns="http://www.w3.org/2000/svg" p-id="15693" xmlns:xlink="http://www.w3.org/1999/xlink" width="32" height="32"><defs><style type="text/css"></style></defs><path d="M960 768c0 0-264 0-320 0s64 192 64 192c0 35.328-28.672 64-64 64l-256 0c-35.328 0-64-28.672-64-64 0 0 121.984-192 64-192S64 768 64 768c-35.328 0-64-28.672-64-64L0 64c0-35.328 28.672-64 64-64l896 0c35.328 0 64 28.672 64 64l0 640C1024 739.328 995.328 768 960 768zM512 736c35.328 0 64-28.672 64-64s-28.672-64-64-64-64 28.672-64 64S476.672 736 512 736zM960 128c0-35.328-28.672-64-64-64L128 64C92.672 64 64 92.672 64 128l0 384c0 35.328 28.672 64 64 64l768 0c35.328 0 64-28.672 64-64L960 128z" p-id="15694"></path></svg>