<?xml version="1.0" standalone="no"?><!DOCTYPE svg PUBLIC "-//W3C//DTD SVG 1.1//EN" "http://www.w3.org/Graphics/SVG/1.1/DTD/svg11.dtd"><svg t="1642822750155" class="icon" viewBox="0 0 1024 1024" version="1.1" xmlns="http://www.w3.org/2000/svg" p-id="5687" xmlns:xlink="http://www.w3.org/1999/xlink" width="32" height="32"><defs><style type="text/css"></style></defs><path d="M508.54912 946.71872c-101.144576 0-183.138304-81.993728-183.138304-183.138304v-175.255552c0-101.144576 81.993728-183.138304 183.138304-183.138304s183.138304 81.993728 183.138304 183.138304v175.255552c0 101.144576-81.993728 183.138304-183.138304 183.138304z" fill="#83E1E5" p-id="5688"></path><path d="M508.54912 613.09952c-16.55808 0-29.98272-13.422592-29.98272-29.98272v-64.606208c0-16.55808 13.422592-29.98272 29.98272-29.98272 16.55808 0 29.98272 13.422592 29.98272 29.98272v64.606208c-0.002048 16.560128-13.42464 29.98272-29.98272 29.98272zM508.54912 946.71872c-101.144576 0-183.138304-81.993728-183.138304-183.138304v67.04128c0 101.144576 81.993728 183.138304 183.138304 183.138304s183.138304-81.993728 183.138304-183.138304v-67.04128c0 101.144576-81.993728 183.138304-183.138304 183.138304z" fill="#AAB1BA" p-id="5689"></path><path d="M594.714624 307.605504l-43.759616 43.75552c-11.327488-11.327488-26.38848-17.565696-42.407936-17.565696s-31.082496 6.238208-42.409984 17.567744l-43.759616-43.759616c23.015424-23.015424 53.618688-35.690496 86.167552-35.690496s63.154176 12.67712 86.1696 35.692544zM687.294464 215.025664l-43.759616 43.759616c-74.432512-74.432512-195.54304-74.432512-269.975552 0l-43.759616-43.759616c98.562048-98.56 258.934784-98.56 357.494784 0z" fill="#FDDF7F" p-id="5690"></path><path d="M779.874304 122.445824l-43.759616 43.759616c-125.48096-125.48096-329.654272-125.48096-455.133184 0l-43.759616-43.759616c149.610496-149.608448 393.04192-149.608448 542.652416 0z" fill="#FDDF7F" p-id="5691"></path><path d="M313.690112 415.428608h-11.988992v11.988992c0 5.656576-4.583424 10.24-10.24 10.24s-10.24-4.583424-10.24-10.24v-11.988992h-11.988992c-5.656576 0-10.24-4.583424-10.24-10.24s4.583424-10.24 10.24-10.24h11.988992v-11.988992c0-5.656576 4.583424-10.24 10.24-10.24s10.24 4.583424 10.24 10.24v11.988992h11.988992c5.656576 0 10.24 4.583424 10.24 10.24s-4.583424 10.24-10.24 10.24z m473.088 272.513024h-11.988992v-11.988992c0-5.656576-4.583424-10.24-10.24-10.24s-10.24 4.583424-10.24 10.24v11.988992h-11.988992c-5.656576 0-10.24 4.583424-10.24 10.24s4.583424 10.24 10.24 10.24h11.988992v11.988992c0 5.656576 4.583424 10.24 10.24 10.24s10.24-4.583424 10.24-10.24v-11.988992h11.988992c5.656576 0 10.24-4.583424 10.24-10.24s-4.583424-10.24-10.24-10.24zM732.07808 341.035008c0 5.656576 4.583424 10.24 10.24 10.24s10.24-4.583424 10.24-10.24v-11.988992h11.988992c5.656576 0 10.24-4.583424 10.24-10.24s-4.583424-10.24-10.24-10.24h-11.988992v-11.988992c0-5.656576-4.583424-10.24-10.24-10.24s-10.24 4.583424-10.24 10.24v11.988992h-11.988992c-5.656576 0-10.24 4.583424-10.24 10.24s4.583424 10.24 10.24 10.24h11.988992v11.988992z m-30.150656 247.291904V830.621696c0 106.627072-86.749184 193.378304-193.380352 193.378304-106.627072 0-193.378304-86.749184-193.378304-193.378304V588.326912c0-106.627072 86.747136-193.378304 193.378304-193.378304s193.380352 86.749184 193.380352 193.378304z m-193.380352-89.55904c-10.88512 0-19.74272 8.855552-19.74272 19.74272v64.608256c0 10.88512 8.855552 19.74272 19.74272 19.74272s19.74272-8.855552 19.74272-19.74272v-64.608256c0-10.887168-8.855552-19.74272-19.74272-19.74272z m171.466752 354.177024c-0.1536 0.292864-0.319488 0.575488-0.473088 0.868352-0.708608 1.335296-1.431552 2.6624-2.168832 3.981312-0.24576 0.44032-0.489472 0.882688-0.739328 1.32096-0.950272 1.665024-1.921024 3.31776-2.920448 4.952064-0.196608 0.323584-0.401408 0.641024-0.600064 0.96256a193.224704 193.224704 0 0 1-6.268928 9.500672c-0.180224 0.256-0.354304 0.518144-0.536576 0.772096a194.674688 194.674688 0 0 1-3.362816 4.579328c-0.339968 0.45056-0.68608 0.897024-1.032192 1.345536-0.88064 1.144832-1.773568 2.279424-2.678784 3.403776-0.34816 0.432128-0.692224 0.866304-1.04448 1.294336a197.722112 197.722112 0 0 1-3.637248 4.319232c-0.258048 0.299008-0.524288 0.589824-0.786432 0.884736a189.595648 189.595648 0 0 1-4.354048 4.790272c-1.058816 1.1264-2.12992 2.240512-3.21536 3.340288-0.274432 0.278528-0.544768 0.5632-0.8192 0.83968a196.096 196.096 0 0 1-4.026368 3.913728c-0.421888 0.39936-0.847872 0.790528-1.271808 1.185792-1.032192 0.960512-2.076672 1.908736-3.129344 2.84672-0.44032 0.391168-0.876544 0.784384-1.32096 1.171456a195.227648 195.227648 0 0 1-4.274176 3.6352c-0.290816 0.239616-0.587776 0.47104-0.88064 0.710656a201.58464 201.58464 0 0 1-5.142528 4.0448c-1.202176 0.913408-2.414592 1.81248-3.637248 2.697216-0.352256 0.256-0.700416 0.516096-1.05472 0.770048a199.36256 199.36256 0 0 1-4.624384 3.196928c-0.473088 0.31744-0.950272 0.62464-1.425408 0.937984-1.18784 0.782336-2.38592 1.552384-3.592192 2.308096-0.50176 0.315392-1.00352 0.632832-1.509376 0.94208-1.60768 0.987136-3.2256 1.957888-4.864 2.899968-0.278528 0.159744-0.561152 0.311296-0.83968 0.468992a205.06624 205.06624 0 0 1-5.89824 3.21536c-1.347584 0.704512-2.70336 1.39264-4.067328 2.066432-0.397312 0.196608-0.790528 0.39936-1.189888 0.591872a191.63136 191.63136 0 0 1-5.173248 2.410496c-0.49152 0.221184-0.989184 0.432128-1.4848 0.649216a191.83616 191.83616 0 0 1-4.063232 1.728512c-0.538624 0.221184-1.0752 0.444416-1.61792 0.661504-1.787904 0.7168-3.584 1.415168-5.398528 2.080768-0.212992 0.077824-0.43008 0.149504-0.643072 0.227328a185.452544 185.452544 0 0 1-6.639616 2.26304 192.53248 192.53248 0 0 1-4.483072 1.380352c-0.423936 0.124928-0.843776 0.256-1.26976 0.37888a193.024 193.024 0 0 1-5.654528 1.529856c-0.487424 0.12288-0.976896 0.237568-1.46432 0.3584-1.49504 0.36864-2.998272 0.718848-4.507648 1.050624-0.561152 0.124928-1.122304 0.249856-1.687552 0.36864-1.941504 0.4096-3.8912 0.800768-5.855232 1.150976l-0.344064 0.057344a195.434496 195.434496 0 0 1-12.169216 1.742848c-0.446464 0.049152-0.892928 0.106496-1.339392 0.1536-2.002944 0.208896-4.016128 0.387072-6.037504 0.536576-0.47104 0.034816-0.946176 0.059392-1.419264 0.090112-1.622016 0.106496-3.250176 0.192512-4.88448 0.260096-0.577536 0.022528-1.153024 0.047104-1.73056 0.065536-2.064384 0.065536-4.132864 0.110592-6.211584 0.110592s-4.1472-0.045056-6.211584-0.110592c-0.577536-0.018432-1.155072-0.043008-1.73056-0.065536a191.926272 191.926272 0 0 1-4.88448-0.260096c-0.473088-0.03072-0.948224-0.055296-1.419264-0.090112a188.665856 188.665856 0 0 1-6.035456-0.536576c-0.448512-0.047104-0.894976-0.104448-1.34144-0.1536a196.0448 196.0448 0 0 1-6.537216-0.83968 189.917184 189.917184 0 0 1-5.636096-0.905216l-0.339968-0.057344a184.9344 184.9344 0 0 1-5.85728-1.153024c-0.5632-0.118784-1.122304-0.243712-1.683456-0.366592a192.528384 192.528384 0 0 1-4.511744-1.052672c-0.485376-0.118784-0.974848-0.233472-1.460224-0.356352a192.997376 192.997376 0 0 1-5.654528-1.527808c-0.428032-0.12288-0.851968-0.256-1.277952-0.380928a201.842688 201.842688 0 0 1-4.470784-1.376256c-0.567296-0.182272-1.134592-0.364544-1.69984-0.55296a195.9936 195.9936 0 0 1-4.950016-1.714176c-0.210944-0.077824-0.425984-0.147456-0.636928-0.22528a188.297216 188.297216 0 0 1-5.398528-2.080768c-0.540672-0.217088-1.079296-0.44032-1.61792-0.661504a183.166976 183.166976 0 0 1-4.063232-1.728512c-0.493568-0.217088-0.991232-0.428032-1.4848-0.649216a191.37536 191.37536 0 0 1-5.169152-2.410496c-0.401408-0.19456-0.79872-0.39936-1.19808-0.595968a184.334336 184.334336 0 0 1-5.691392-2.924544 196.696064 196.696064 0 0 1-4.274176-2.357248c-0.27648-0.157696-0.559104-0.309248-0.835584-0.466944-1.6384-0.94208-3.25632-1.912832-4.864-2.899968-0.505856-0.311296-1.005568-0.628736-1.509376-0.944128a198.606848 198.606848 0 0 1-3.59424-2.310144c-0.473088-0.311296-0.948224-0.618496-1.419264-0.933888-1.55648-1.04448-3.10272-2.10944-4.626432-3.196928-0.356352-0.253952-0.704512-0.516096-1.058816-0.772096a186.537984 186.537984 0 0 1-5.117952-3.835904c-1.2288-0.95232-2.443264-1.918976-3.647488-2.89792-0.29696-0.241664-0.598016-0.475136-0.89088-0.718848a200.648704 200.648704 0 0 1-4.27008-3.631104c-0.444416-0.38912-0.882688-0.784384-1.325056-1.175552a195.14368 195.14368 0 0 1-3.1232-2.840576c-0.425984-0.395264-0.854016-0.78848-1.275904-1.18784a201.20576 201.20576 0 0 1-4.022272-3.909632c-0.280576-0.280576-0.55296-0.569344-0.831488-0.851968a196.38272 196.38272 0 0 1-7.54688-8.103936c-0.26624-0.303104-0.540672-0.602112-0.804864-0.907264a191.502336 191.502336 0 0 1-3.622912-4.302848c-0.360448-0.438272-0.712704-0.884736-1.069056-1.325056a182.480896 182.480896 0 0 1-2.650112-3.371008c-0.350208-0.454656-0.702464-0.907264-1.048576-1.366016a193.388544 193.388544 0 0 1-3.350528-4.564992c-0.192512-0.270336-0.376832-0.546816-0.567296-0.8192a195.807232 195.807232 0 0 1-6.21568-9.4208c-0.210944-0.342016-0.428032-0.677888-0.638976-1.019904a189.85984 189.85984 0 0 1-2.899968-4.917248c-0.262144-0.458752-0.514048-0.9216-0.772096-1.3824a204.623872 204.623872 0 0 1-2.127872-3.903488c-0.161792-0.303104-0.333824-0.600064-0.493568-0.905216 10.985472 84.82816 83.69152 150.573056 171.464704 150.573056s160.47104-65.744896 171.456512-150.571008z m1.4336-264.617984c0-91.895808-72.073216-167.24992-162.660352-172.568576v63.901696c17.225728 4.54656 29.98272 20.217856 29.98272 38.85056v64.608256c0 18.634752-12.756992 34.304-29.98272 38.85056V651.264c0 5.656576-4.583424 10.24-10.24 10.24s-10.24-4.583424-10.24-10.24v-29.294592c-17.225728-4.54656-29.98272-20.217856-29.98272-38.85056v-64.608256c0-18.634752 12.756992-34.304 29.98272-38.85056v-63.901696c-90.585088 5.320704-162.658304 80.672768-162.658304 172.568576v175.253504c0 95.338496 77.561856 172.900352 172.898304 172.900352 95.338496 0 172.900352-77.561856 172.900352-172.900352v-175.253504z m-172.900352-326.651904c35.282944 0 68.456448 13.740032 93.407232 38.690816a10.242048 10.242048 0 0 1 0 14.483456L558.196736 358.6048a10.24 10.24 0 0 1-14.47936-0.002048c-9.394176-9.392128-21.884928-14.565376-35.168256-14.565376s-25.77408 5.173248-35.170304 14.567424c-1.998848 2.000896-4.620288 3.00032-7.23968 3.00032s-5.24288-0.999424-7.23968-3.00032l-43.757568-43.757568a10.237952 10.237952 0 0 1-0.002048-14.47936c24.948736-24.95488 58.120192-38.692864 93.407232-38.692864z m71.360512 46.256128c-20.00896-16.6912-44.986368-25.778176-71.360512-25.778176-26.37824 0-51.355648 9.086976-71.36256 25.778176l29.472768 29.472768c12.04224-8.988672 26.59328-13.848576 41.889792-13.848576s29.845504 4.857856 41.887744 13.846528l29.472768-29.47072z m56.387584-41.904128c-34.066432-34.064384-79.433728-52.826112-127.748096-52.826112s-93.681664 18.761728-127.748096 52.826112a10.237952 10.237952 0 0 1-14.47936 0l-43.757568-43.759616a10.235904 10.235904 0 0 1 0-14.47936c102.551552-102.555648 269.422592-102.555648 371.974144 0a10.237952 10.237952 0 0 1 0 14.47936l-43.759616 43.759616a10.237952 10.237952 0 0 1-14.481408 0z m-127.748096-73.306112c50.348032 0 97.830912 18.30912 134.807552 51.7632l29.308928-29.308928c-92.532736-85.116928-235.698176-85.116928-328.230912 0l29.30688 29.308928c36.980736-33.456128 84.461568-51.7632 134.807552-51.7632zM273.741824 173.44512l-43.759616-43.759616a10.237952 10.237952 0 0 1 0-14.47936c153.6-153.6 403.531776-153.6 557.131776 0a10.237952 10.237952 0 0 1 0 14.47936L743.354368 173.44512a10.237952 10.237952 0 0 1-14.47936 0c-58.753024-58.753024-137.00096-91.111424-220.325888-91.111424s-161.572864 32.3584-220.325888 91.111424a10.237952 10.237952 0 0 1-14.481408 0zM251.8016 122.544128l29.290496 29.290496c61.722624-58.103808 142.092288-89.980928 227.457024-89.980928s165.7344 31.875072 227.457024 89.980928l29.290496-29.290496c-143.6672-136.108032-369.829888-136.108032-513.49504 0zM508.547072 676.864a10.24 10.24 0 0 0-10.24 10.24v10.24c0 5.656576 4.583424 10.24 10.24 10.24s10.24-4.583424 10.24-10.24v-10.24a10.24 10.24 0 0 0-10.24-10.24z" fill="#1C1D21" p-id="5692"></path></svg>