<?xml version="1.0" standalone="no"?><!DOCTYPE svg PUBLIC "-//W3C//DTD SVG 1.1//EN" "http://www.w3.org/Graphics/SVG/1.1/DTD/svg11.dtd"><svg t="1642823353855" class="icon" viewBox="0 0 1024 1024" version="1.1" xmlns="http://www.w3.org/2000/svg" p-id="17560" xmlns:xlink="http://www.w3.org/1999/xlink" width="32" height="32"><defs><style type="text/css"></style></defs><path d="M752.05 525.35H271.95V331.95h480.1z" fill="#616161" p-id="17561"></path><path d="M720.05 525.35H303.95V304h416.1z" fill="#424242" p-id="17562"></path><path d="M328 208h368v288H328z" fill="#B3E5FC" p-id="17563"></path><path d="M152.35 432h719.25c13.35 0 24.3 10.95 24.3 24.3v335.4c0 13.35-10.95 24.3-24.3 24.3H152.35c-13.35 0-24.3-10.95-24.3-24.3V456.3c0-13.35 10.95-24.3 24.3-24.3z" fill="#757575" p-id="17564"></path><path d="M752.05 816H271.95v-176h480.1zM895.95 568v8H128.05v-8z" fill="#424242" p-id="17565"></path><path d="M736.05 816H287.95v-96h448.1z" fill="#757575" p-id="17566"></path><path d="M195.7 501.85m-16 0a16 16 0 1 0 32 0 16 16 0 1 0-32 0Z" fill="#FFA726" p-id="17567"></path><path d="M235.3 501.85m-16 0a16 16 0 1 0 32 0 16 16 0 1 0-32 0Z" fill="#FFD180" p-id="17568"></path><path d="M895.95 548v8H128.05v-8z" fill="#424242" p-id="17569"></path></svg>