<?xml version="1.0" standalone="no"?><!DOCTYPE svg PUBLIC "-//W3C//DTD SVG 1.1//EN" "http://www.w3.org/Graphics/SVG/1.1/DTD/svg11.dtd"><svg t="1642822978553" class="icon" viewBox="0 0 1024 1024" version="1.1" xmlns="http://www.w3.org/2000/svg" p-id="10685" xmlns:xlink="http://www.w3.org/1999/xlink" width="32" height="32"><defs><style type="text/css"></style></defs><path d="M924 590.63H172l510-511c15.74-15.74 15.74-41.26 0-57s-41.26-15.74-57 0l-589 591-3 3a100.008 100.008 0 0 0-33 74v180c0 55.23 44.77 100 100 100h30v5c0 22.09 17.91 40 40 40s40-17.91 40-40v-5h604v5c0 22.09 17.91 40 40 40s40-17.91 40-40v-5h30c55.23 0 100-44.77 100-100v-180c0-55.23-44.77-100-100-100z m20 280c0 11.05-8.95 20-20 20H100c-11.05 0-20-8.95-20-20v-180c0-11.05 8.95-20 20-20h824c11.05 0 20 8.95 20 20v180z" p-id="10686"></path><path d="M582 790.63h-18c-22.09 0-40 17.91-40 40s17.91 40 40 40h18c22.09 0 40-17.91 40-40 0-22.1-17.91-40-40-40zM337 538.63c0 22.09 17.91 40 40 40h480c22.09 0 40-17.91 40-40s-17.91-40-40-40H377c-22.09 0-40 17.9-40 40zM855 790.63h-55c-22.09 0-40 17.91-40 40s17.91 40 40 40h55c22.09 0 40-17.91 40-40 0-22.1-17.91-40-40-40zM700 790.63h-18c-22.09 0-40 17.91-40 40s17.91 40 40 40h18c22.09 0 40-17.91 40-40 0-22.1-17.91-40-40-40z" p-id="10687"></path></svg>