<?xml version="1.0" standalone="no"?><!DOCTYPE svg PUBLIC "-//W3C//DTD SVG 1.1//EN" "http://www.w3.org/Graphics/SVG/1.1/DTD/svg11.dtd"><svg t="1642823397189" class="icon" viewBox="0 0 1024 1024" version="1.1" xmlns="http://www.w3.org/2000/svg" p-id="20556" xmlns:xlink="http://www.w3.org/1999/xlink" width="32" height="32"><defs><style type="text/css"></style></defs><path d="M170.443923 0.479775h682.783655c23.413015 0 42.412101 19.190996 42.412101 42.795921v936.936413c0 23.63691-18.999086 42.827906-42.412101 42.827906H170.443923c-23.445 0-42.444086-19.190996-42.444086-42.827906V43.275696C127.999837 19.638786 146.998923 0.479775 170.443923 0.479775z" fill="#324D5B" p-id="20557"></path><path d="M511.819758 512.719445c106.062238 0 192.069886 85.815737 192.069885 191.622095 0 105.870328-85.975662 191.654081-192.069885 191.654081s-192.037901-85.815737-192.037901-191.654081c0-105.806358 85.975662-191.622096 192.037901-191.622095z" fill="#EFC75E" p-id="20558"></path><path d="M511.819758 575.889807c70.878745 0 128.323794 57.285123 128.323794 127.971959S582.698503 831.833724 511.819758 831.833724s-128.323794-57.285123-128.323794-127.971958S440.941012 575.889807 511.819758 575.889807z" fill="#324D5B" p-id="20559"></path><path d="M511.819758 671.940742c17.879611 0 32.368813 14.329277 32.368813 32.016979 0 17.655716-14.489202 31.984993-32.368813 31.984993s-32.336828-14.329277-32.336828-31.984993c0-17.687701 14.457217-32.016978 32.336828-32.016979zM511.819758 127.971959c70.878745 0 128.323794 57.285123 128.323794 127.971958S582.698503 383.915876 511.819758 383.915876s-128.323794-57.285123-128.323794-127.971959S440.941012 127.971959 511.819758 127.971959z" fill="#E4E7E7" p-id="20560"></path><path d="M511.819758 160.468712a95.95498 95.95498 0 0 1 95.89101 96.01895A95.95498 95.95498 0 0 1 511.819758 352.474628a95.95498 95.95498 0 0 1-95.859025-95.986966A95.922995 95.922995 0 0 1 511.819758 160.468712z" fill="#324D5B" p-id="20561"></path><path d="M511.819758 224.054879c17.495791 0 31.665144 14.297292 31.665143 31.984993s-14.169352 31.984993-31.665143 31.984994-31.665144-14.297292-31.665144-31.984994 14.169352-31.984993 31.665144-31.984993z" fill="#EFC75E" p-id="20562"></path></svg>