<?xml version="1.0" standalone="no"?><!DOCTYPE svg PUBLIC "-//W3C//DTD SVG 1.1//EN" "http://www.w3.org/Graphics/SVG/1.1/DTD/svg11.dtd"><svg t="1642822886434" class="icon" viewBox="0 0 1024 1024" version="1.1" xmlns="http://www.w3.org/2000/svg" p-id="8483" xmlns:xlink="http://www.w3.org/1999/xlink" width="32" height="32"><defs><style type="text/css"></style></defs><path d="M725.333333 789.333333H298.666667l-59.306667 88.96a25.173333 25.173333 0 0 0 21.333333 39.04H763.733333a25.173333 25.173333 0 0 0 21.333334-39.04z" fill="#546E7A" p-id="8484"></path><path d="M512 490.666667m-384 0a384 384 0 1 0 768 0 384 384 0 1 0-768 0Z" fill="#B0BEC5" p-id="8485"></path><path d="M512 490.666667m-234.666667 0a234.666667 234.666667 0 1 0 469.333334 0 234.666667 234.666667 0 1 0-469.333334 0Z" fill="#37474F" p-id="8486"></path><path d="M512 490.666667m-192 0a192 192 0 1 0 384 0 192 192 0 1 0-384 0Z" fill="#03A9F4" p-id="8487"></path></svg>